<?xml version="1.0" encoding="utf-8"?>
<!-- Generator: Adobe Illustrator 16.0.0, SVG Export Plug-In . SVG Version: 6.00 Build 0)  -->
<!DOCTYPE svg PUBLIC "-//W3C//DTD SVG 1.0//EN" "http://www.w3.org/TR/2001/REC-SVG-20010904/DTD/svg10.dtd">
<svg version="1.0" id="Layer_1" xmlns="http://www.w3.org/2000/svg" xmlns:xlink="http://www.w3.org/1999/xlink" x="0px" y="0px"
	 width="26px" height="30px" viewBox="0 0 26 30" style="enable-background:new 0 0 26 30;" xml:space="preserve">
<style type="text/css">
<![CDATA[
	.st0{fill:#B3B3B3;}
]]>
</style>
<g>
	<g>
		<polygon class="st0" points="14,15.268 2.515,15.07 2.636,14.07 13,14.25 13,2 14,2 		"/>
	</g>
	<g>
		<polygon class="st0" points="8.859,25.485 7.935,25.103 12.539,14.022 24.261,21.359 23.729,22.207 13.01,15.497 		"/>
	</g>
	<g>
		<path class="st0" d="M13.772,4.322c-0.536,0-1.04-0.208-1.417-0.587c-0.781-0.781-0.782-2.053-0.002-2.835
			c0.758-0.759,2.081-0.758,2.839,0c0.776,0.782,0.776,2.053,0.002,2.835C14.812,4.114,14.309,4.322,13.772,4.322z M13.772,1.311
			c-0.269,0-0.521,0.104-0.711,0.294c-0.391,0.393-0.39,1.031,0.001,1.423c0.38,0.381,1.042,0.378,1.422,0
			c0.389-0.391,0.389-1.03-0.001-1.423C14.295,1.416,14.042,1.311,13.772,1.311z"/>
	</g>
	<g>
		<path class="st0" d="M2.005,16.736c-0.534,0-1.037-0.208-1.416-0.585c-0.782-0.782-0.783-2.056-0.002-2.841
			c0.763-0.76,2.081-0.758,2.837-0.001c0.381,0.382,0.589,0.889,0.587,1.428c-0.001,0.535-0.21,1.035-0.588,1.41
			C3.047,16.526,2.542,16.736,2.005,16.736z M2.007,13.723c-0.269,0-0.521,0.104-0.712,0.295c-0.392,0.393-0.392,1.033,0,1.426
			c0.38,0.378,1.042,0.377,1.421-0.003c0.191-0.189,0.294-0.439,0.295-0.706c0.001-0.271-0.104-0.526-0.295-0.718
			C2.528,13.827,2.276,13.723,2.007,13.723z"/>
	</g>
	<g>
		<path class="st0" d="M8.399,27.296c-0.537,0-1.04-0.209-1.418-0.587c-0.378-0.375-0.588-0.877-0.589-1.412
			c-0.001-0.538,0.207-1.043,0.587-1.424c0.76-0.756,2.076-0.754,2.836-0.002c0.782,0.787,0.782,2.059,0.002,2.838
			C9.439,27.087,8.935,27.296,8.399,27.296z M8.397,24.288c-0.269,0-0.521,0.104-0.712,0.293c-0.189,0.189-0.294,0.443-0.293,0.713
			c0,0.268,0.105,0.519,0.295,0.706c0.382,0.383,1.045,0.381,1.424,0.002c0.391-0.391,0.391-1.029-0.001-1.423
			C8.92,24.393,8.667,24.288,8.397,24.288z"/>
	</g>
	<g>
		<path class="st0" d="M23.997,23.788c-0.536,0-1.04-0.209-1.419-0.589c-0.776-0.783-0.776-2.055,0-2.835
			c0.757-0.759,2.077-0.76,2.838-0.001c0.775,0.781,0.775,2.053,0.002,2.835C25.037,23.579,24.533,23.788,23.997,23.788z
			 M23.997,20.775c-0.269,0-0.521,0.104-0.711,0.295c-0.39,0.392-0.389,1.03,0.002,1.424c0.378,0.38,1.041,0.38,1.421-0.001
			c0.388-0.392,0.388-1.032-0.002-1.424C24.519,20.881,24.266,20.775,23.997,20.775z"/>
	</g>
	<g>
		<polygon class="st0" points="12.771,15.387 1.931,7.184 2.534,6.386 12.776,14.138 23.261,6.383 23.854,7.187 		"/>
	</g>
	<g>
		<polygon class="st0" points="15.253,27.772 12.418,15.45 2.423,19.577 2.042,18.653 13.128,14.075 16.228,27.548 		"/>
	</g>
	<g>
		<rect x="12.773" y="14.255" class="st0" width="7.855" height="1"/>
	</g>
	<g>
		<path class="st0" d="M23.558,8.603c-1.16,0-2.003-0.764-2.003-1.817c0-1.107,0.898-2.008,2.003-2.008
			c1.105,0,2.005,0.901,2.005,2.008C25.562,7.838,24.72,8.603,23.558,8.603z M23.558,5.777c-0.553,0-1.003,0.452-1.003,1.008
			c0,0.604,0.54,0.817,1.003,0.817c0.464,0,1.005-0.214,1.005-0.817C24.562,6.229,24.111,5.777,23.558,5.777z"/>
	</g>
	<g>
		<path class="st0" d="M2.232,8.603c-1.163,0-2.007-0.764-2.007-1.817c0-1.107,0.9-2.008,2.007-2.008
			c1.104,0,2.003,0.901,2.003,2.008C4.235,7.838,3.393,8.603,2.232,8.603z M2.232,5.777c-0.555,0-1.007,0.452-1.007,1.008
			c0,0.604,0.542,0.817,1.007,0.817c0.463,0,1.003-0.214,1.003-0.817C3.235,6.229,2.786,5.777,2.232,5.777z"/>
	</g>
	<g>
		<path class="st0" d="M2.232,21.124c-1.106,0-2.007-0.901-2.007-2.009c0-1.104,0.9-2.004,2.007-2.004
			c1.104,0,2.003,0.899,2.003,2.004C4.235,20.223,3.337,21.124,2.232,21.124z M2.232,18.111c-0.555,0-1.007,0.45-1.007,1.004
			c0,0.557,0.452,1.009,1.007,1.009c0.553,0,1.003-0.452,1.003-1.009C3.235,18.562,2.786,18.111,2.232,18.111z"/>
	</g>
	<g>
		<path class="st0" d="M15.739,29.67c-1.104,0-2.004-0.901-2.004-2.01c0-1.104,0.899-2.004,2.004-2.004
			c1.107,0,2.008,0.899,2.008,2.004C17.747,28.769,16.847,29.67,15.739,29.67z M15.739,26.656c-0.554,0-1.004,0.45-1.004,1.004
			c0,0.557,0.45,1.01,1.004,1.01c0.565,0,1.008-0.443,1.008-1.01C16.747,27.106,16.295,26.656,15.739,26.656z"/>
	</g>
	<g>
		<path class="st0" d="M20.628,16.756c-1.106,0-2.007-0.9-2.007-2.007c0-1.105,0.9-2.004,2.007-2.004
			c1.105,0,2.005,0.899,2.005,2.004C22.633,15.855,21.733,16.756,20.628,16.756z M20.628,13.745c-0.555,0-1.007,0.45-1.007,1.004
			c0,0.556,0.452,1.007,1.007,1.007c0.554,0,1.005-0.452,1.005-1.007C21.633,14.195,21.182,13.745,20.628,13.745z"/>
	</g>
</g>
</svg>
