<?xml version="1.0" encoding="utf-8"?>
<!-- Generator: Adobe Illustrator 16.0.0, SVG Export Plug-In . SVG Version: 6.00 Build 0)  -->
<!DOCTYPE svg PUBLIC "-//W3C//DTD SVG 1.0//EN" "http://www.w3.org/TR/2001/REC-SVG-20010904/DTD/svg10.dtd">
<svg version="1.0" id="Layer_1" xmlns="http://www.w3.org/2000/svg" xmlns:xlink="http://www.w3.org/1999/xlink" x="0px" y="0px"
	 width="250px" height="250px" viewBox="0 0 250 250" enable-background="new 0 0 250 250" xml:space="preserve">
<g>
	<path d="M200.03,118.521c0-38.625-31.429-70.049-70.06-70.049c-38.625,0-70.048,31.424-70.048,70.049
		c0,2.055,0.106,4.202,0.304,6.381c-0.201,2.821-0.304,4.438-0.304,6.515c0,8.582,1.566,17.082,4.619,25.077L48.97,164.63
		l16.436,19.553l9.196-9.772c13.214,17.013,33.752,27.118,55.309,27.118c38.591,0,69.986-31.394,69.986-69.98
		c0-1.777-0.083-3.656-0.252-5.734C199.897,123.365,200.03,120.912,200.03,118.521z M67.201,155.104
		c-1.739-4.618-2.952-9.375-3.632-14.229c1.518,4.503,3.504,8.85,5.951,13.017L67.201,155.104z M53.67,165.56l13.438-7.022l0,0
		l5.215-2.725l-0.022-0.042h0l0.022,0.042l30.813-16.104l-22.634,24.054l0,0l-1.082,1.149l0,0l-5.788,6.15l-8.101,8.608
		L53.67,165.56z M129.91,198.528c-20.789,0-40.591-9.818-53.229-26.328l3.326-3.535l0.527-0.56
		c13.224,13.204,30.716,20.456,49.436,20.456c30.441,0,56.585-19.307,66.164-46.901C191.244,173.812,163.408,198.528,129.91,198.528
		z M129.971,185.562c-17.945,0-34.7-6.98-47.365-19.656l28.81-30.616l-1.787-2.357l-37.367,19.215
		C67.214,143.67,64.164,134,63.232,124h-0.019c-0.189-2-0.291-3.83-0.291-5.793c0-36.971,30.078-66.893,67.048-66.893
		c36.977,0,67.06,30.156,67.06,67.127c0,2.34-0.128,4.779-0.382,7.175C193.033,159.769,164.367,185.562,129.971,185.562z"/>
	<path d="M129.971,104.235c-7.867,0-14.268,6.408-14.268,14.285c0,7.867,6.4,14.268,14.268,14.268c7.866,0,14.267-6.4,14.267-14.268
		C144.237,110.644,137.837,104.235,129.971,104.235z M129.971,129.788c-6.213,0-11.268-5.055-11.268-11.268
		c0-6.223,5.054-11.285,11.268-11.285c6.213,0,11.267,5.062,11.267,11.285C141.237,124.733,136.184,129.788,129.971,129.788z"/>
</g>
</svg>
