<?xml version="1.0" encoding="utf-8"?>
<!-- Generator: Adobe Illustrator 16.0.0, SVG Export Plug-In . SVG Version: 6.00 Build 0)  -->
<!DOCTYPE svg PUBLIC "-//W3C//DTD SVG 1.1//EN" "http://www.w3.org/Graphics/SVG/1.1/DTD/svg11.dtd">
<svg version="1.1" id="Layer_1" xmlns="http://www.w3.org/2000/svg" xmlns:xlink="http://www.w3.org/1999/xlink" x="0px" y="0px"
	 width="250px" height="250px" viewBox="0 0 250 250" enable-background="new 0 0 250 250" xml:space="preserve">
<g>
	<path d="M195.619,158.137c-1.938-1.934-4.514-2.998-7.248-2.998s-5.307,1.065-7.238,3c-0.175,0.174-0.334,0.359-0.494,0.545
		l-47.731-29.869c0.3-0.933,0.462-1.897,0.487-2.869l36.092-0.036c0.672,5.01,4.959,8.889,10.143,8.889
		c5.648,0,10.246-4.601,10.246-10.256c0-5.648-4.598-10.244-10.246-10.244c-5.189,0-9.48,3.885-10.145,8.896l-36.377,0.037
		c-0.394-1.631-1.19-3.179-2.392-4.491l41.052-42.554c1.698,1.252,3.791,2.002,6.059,2.002c5.648,0,10.244-4.596,10.244-10.244
		c0-5.654-4.596-10.254-10.244-10.254c-5.649,0-10.245,4.6-10.245,10.254c0,2.473,0.881,4.743,2.345,6.515l-41.013,42.708
		c-1.183-0.801-1.912-1.336-3.912-1.587V61.805c2-0.364,3.924-1.334,5.426-2.834c3.982-3.994,3.98-10.494-0.004-14.491
		c-1.938-1.936-4.514-3.001-7.253-3.001c-2.736,0-5.31,1.063-7.248,2.996c-3.993,3.991-3.985,10.495,0.012,14.497
		c1.651,1.654,4.066,2.666,6.066,2.927v53.586c-1,0.164-2.823,0.634-4.059,1.369l-39-39.496c1.237-1.693,1.976-3.771,1.976-6.023
		c0-5.654-4.596-10.254-10.245-10.254s-10.245,4.6-10.245,10.254c0,5.648,4.596,10.244,10.244,10.244
		c2.403,0,4.611-0.838,6.36-2.229l38.692,39.275c-1.255,1.328-2.083,2.911-2.49,4.581l-42.451-0.111
		c-0.287-2.233-1.289-4.301-2.908-5.919c-1.937-1.938-4.51-3.005-7.245-3.005c-2.736,0-5.309,1.067-7.243,3.004
		c-1.938,1.936-3.004,4.51-3.004,7.249c0,2.737,1.066,5.312,3.005,7.252c1.935,1.928,4.505,2.989,7.237,2.989l0,0
		c2.737,0,5.312-1.065,7.249-3c1.604-1.604,2.601-3.647,2.899-5.854l42.169,0.11c0.013,0.463,0.057,0.925,0.132,1.382
		l-42.291,17.475c-1.775-3.053-5.076-5.116-8.855-5.116c-5.648,0-10.244,4.596-10.244,10.244c0,5.647,4.596,10.243,10.244,10.243
		c5.648,0,10.244-4.596,10.244-10.243c0-0.906-0.13-1.781-0.353-2.618l42.049-17.372c0.493,1.082,1.174,2.101,2.062,2.989
		c0.196,0.197,0.404,0.38,0.614,0.559L95.869,169.23c-1.243-0.522-2.589-0.799-3.976-0.799c-2.734,0-5.306,1.064-7.238,2.998
		c-1.937,1.936-3.002,4.508-3.001,7.244c0.001,2.74,1.07,5.317,3.013,7.256c1.931,1.93,4.502,2.991,7.239,2.991
		c2.737,0,5.311-1.062,7.251-2.994c3.985-4.003,3.984-10.503-0.005-14.491c-0.299-0.3-0.618-0.568-0.945-0.824l20.622-35.68
		c1.343,0.631,2.814,0.975,4.343,0.975c0.401,0,0.798-0.029,1.19-0.075l12.465,54.146c-3.876,1.461-6.646,5.197-6.646,9.578
		c0,5.654,4.596,10.254,10.243,10.254c5.65,0,10.247-4.6,10.247-10.254c0-5.647-4.597-10.244-10.247-10.244
		c-0.321,0-0.64,0.021-0.954,0.049l-12.475-54.191c1.268-0.509,2.432-1.271,3.426-2.266c0.501-0.502,0.938-1.045,1.312-1.616
		l47.41,29.666c-0.658,1.368-1.018,2.875-1.017,4.438c0.001,2.735,1.067,5.307,3.002,7.234c1.937,1.943,4.513,3.016,7.254,3.016
		h0.001c2.735,0,5.307-1.068,7.235-3.004C199.618,168.637,199.617,162.134,195.619,158.137z"/>
</g>
</svg>
