<?xml version="1.0" encoding="utf-8"?>
<!-- Generator: Adobe Illustrator 16.0.0, SVG Export Plug-In . SVG Version: 6.00 Build 0)  -->
<!DOCTYPE svg PUBLIC "-//W3C//DTD SVG 1.0//EN" "http://www.w3.org/TR/2001/REC-SVG-20010904/DTD/svg10.dtd">
<svg version="1.0" id="Layer_1" xmlns="http://www.w3.org/2000/svg" xmlns:xlink="http://www.w3.org/1999/xlink" x="0px" y="0px"
	 width="250px" height="250px" viewBox="0 0 250 250" enable-background="new 0 0 250 250" xml:space="preserve">
<g>
	<g>
		<path d="M123.796,74.069c0.225,0.002,0.447,0.003,0.672,0.003c13.821,0,28.525-3.833,29.043-11.08l-3.105-0.221
			c-0.284,3.982-11.272,8.295-26.582,8.185c-14.676-0.12-25.063-4.442-25.209-8.247l-3.111,0.119
			C95.775,69.981,110.284,73.959,123.796,74.069z"/>
		<path d="M92.085,80.197c0.348,6.349,16.639,9.351,31.627,9.453c0.277,0.002,0.554,0.003,0.831,0.003
			c15.777,0,31.772-3.164,32.358-9.325l-3.1-0.295c-0.223,2.342-10.763,6.637-30.068,6.504c-18.511-0.127-28.419-4.306-28.54-6.51
			L92.085,80.197z"/>
		<path d="M123.368,113.409c0.456,0.004,0.909,0.007,1.363,0.007c11.561,0,22.509-1.393,30.96-3.948
			c9.432-2.852,14.599-6.767,14.94-11.321l-3.104-0.232c-0.446,5.941-18.044,12.388-42.78,12.388c-0.447,0-0.899-0.002-1.352-0.006
			c-24.752-0.201-41.671-6.622-41.941-12.494l-3.11,0.145C78.797,107.756,101.881,113.234,123.368,113.409z"/>
		<path d="M123.133,138.985c0.465,0.004,0.928,0.005,1.392,0.005c14.299,0,27.833-1.616,38.243-4.576
			c7.985-2.271,17.615-6.345,18.147-12.86l-3.104-0.254c-0.293,3.59-6.235,7.372-15.896,10.119
			c-10.471,2.978-24.231,4.548-38.761,4.453c-30.689-0.221-51.644-7.779-51.96-14.7l-3.11,0.143
			C68.599,132.539,96.83,138.796,123.133,138.985z"/>
		<path d="M184.676,145.062c-0.702,8.311-25.678,16.991-61.685,16.696c-15.896-0.103-30.786-2.03-41.925-5.427
			c-10.44-3.184-16.54-7.352-16.734-11.434l-3.11,0.148c0.603,12.621,32.264,19.635,61.746,19.825
			c0.547,0.005,1.094,0.007,1.642,0.007c30.525,0,62.126-7.204,63.169-19.555L184.676,145.062z"/>
		<path d="M123.396,184.286c-24.746-0.194-41.665-7.213-41.941-13.646l-3.11,0.133c0.398,9.279,19.756,16.427,45.025,16.626
			c0.354,0.003,0.708,0.005,1.062,0.005c22.334,0,45.479-6.065,46.201-16.434l-3.106-0.217
			C166.956,178.949,143.843,184.501,123.396,184.286z"/>
		<path d="M123.828,203.922c-14.847-0.173-24.972-5.22-25.112-9.824l-3.112,0.096c0.218,7.137,12.337,12.657,28.191,12.842
			c0.227,0.002,0.45,0.003,0.676,0.003c15.824,0,28.474-5.525,28.928-12.707l-3.107-0.197
			C149.916,200.053,136.064,204.08,123.828,203.922z"/>
		<path d="M94.872,52.26c7.621,1.589,17.775,2.489,28.59,2.536l1.139,0.003c14.324,0,41.664-2.005,42.605-9.596l0.216-1.739
			L124.5,43.249l-42.797,0.064l0.085,1.636C81.951,48.066,86.231,50.457,94.872,52.26z M124.494,46.362l37.647,0.188
			c-4.67,2.352-17.51,5.135-37.541,5.135l-1.123-0.003c-20.01-0.087-32.558-2.925-36.885-5.263L124.494,46.362z"/>
	</g>
</g>
</svg>
