<?xml version="1.0" encoding="utf-8"?>
<!-- Generator: Adobe Illustrator 16.0.0, SVG Export Plug-In . SVG Version: 6.00 Build 0)  -->
<!DOCTYPE svg PUBLIC "-//W3C//DTD SVG 1.0//EN" "http://www.w3.org/TR/2001/REC-SVG-20010904/DTD/svg10.dtd">
<svg version="1.0" id="Layer_1" xmlns="http://www.w3.org/2000/svg" xmlns:xlink="http://www.w3.org/1999/xlink" x="0px" y="0px"
	 width="69px" height="69px" viewBox="0 0 69 69" enable-background="new 0 0 69 69" xml:space="preserve">
<g>
	<path fill="#485057" d="M23.141,37.033C23.037,37.467,22.973,38,22.95,38h-0.073c-0.118-1-0.345-1.518-0.679-2.52L20.446,30h-1.609
		l-1.797,5.376c-0.106,0.31-0.234,0.767-0.379,1.294C16.516,37.195,16.41,37,16.344,38h-0.073c-0.047-1-0.237-1.271-0.566-2.527
		C15.375,34.217,14.894,32,14.262,30h-1.555l2.673,9h1.715l1.851-5.619C19.125,32.83,19.333,32,19.57,31h0.071
		c0.31,1,0.522,2.023,0.634,2.365L22.072,39h1.76l2.709-9h-1.537C23.866,34,23.245,36.596,23.141,37.033z"/>
	<path fill="#485057" d="M38.016,37.033C37.912,37.467,37.848,38,37.824,38h-0.072c-0.119-1-0.344-1.518-0.678-2.52L35.322,30
		h-1.609l-1.797,5.376c-0.106,0.31-0.234,0.767-0.378,1.294C31.392,37.195,31.286,37,31.221,38h-0.072
		c-0.048-1-0.237-1.271-0.567-2.527C30.25,34.217,29.769,32,29.138,30h-1.555l2.673,9h1.715l1.851-5.619
		C34,32.83,34.208,32,34.446,31h0.071c0.309,1,0.521,2.023,0.634,2.365L36.949,39h1.76l2.707-9h-1.537
		C38.742,34,38.121,36.596,38.016,37.033z"/>
	<path fill="#485057" d="M52.894,37.033C52.791,37.467,52.726,38,52.703,38h-0.072c-0.119-1-0.346-1.518-0.68-2.52L50.199,30H48.59
		l-1.797,5.376c-0.105,0.31-0.233,0.767-0.377,1.294C46.27,37.195,46.162,37,46.099,38h-0.073c-0.047-1-0.236-1.271-0.566-2.527
		C45.127,34.217,44.646,32,44.015,30h-1.556l2.674,9h1.715l1.852-5.619C48.877,32.83,49.084,32,49.324,31h0.07
		c0.309,1,0.521,2.023,0.634,2.365L51.826,39h1.76l2.707-9h-1.537C53.619,34,52.998,36.596,52.894,37.033z"/>
</g>
</svg>
