<?xml version="1.0" encoding="utf-8"?>
<!-- Generator: Adobe Illustrator 16.0.0, SVG Export Plug-In . SVG Version: 6.00 Build 0)  -->
<!DOCTYPE svg PUBLIC "-//W3C//DTD SVG 1.0//EN" "http://www.w3.org/TR/2001/REC-SVG-20010904/DTD/svg10.dtd">
<svg version="1.0" id="Layer_1" xmlns="http://www.w3.org/2000/svg" xmlns:xlink="http://www.w3.org/1999/xlink" x="0px" y="0px"
	 width="69px" height="69px" viewBox="0 0 69 69" enable-background="new 0 0 69 69" xml:space="preserve">
<g>
	<g>
		<g>
			<path d="M34.499,49.231c-8.123,0-14.73-6.609-14.73-14.732c0-8.122,6.608-14.73,14.73-14.73c8.123,0,14.732,6.608,14.732,14.73
				C49.231,42.622,42.622,49.231,34.499,49.231z M34.499,20.769c-7.571,0-13.73,6.159-13.73,13.73c0,7.572,6.16,13.732,13.73,13.732
				c7.572,0,13.732-6.16,13.732-13.732C48.231,26.928,42.071,20.769,34.499,20.769z"/>
		</g>
		<g>
			<g>
				<path d="M39.01,39.218h-1.353l-2.754-4.395L32.1,39.218h-1.262l3.406-5.222l-3.175-4.771h1.317l2.544,3.958l2.565-3.958h1.269
					l-3.175,4.73L39.01,39.218z"/>
			</g>
		</g>
	</g>
</g>
</svg>
