<?xml version="1.0" encoding="utf-8"?>
<!-- Generator: Adobe Illustrator 16.0.0, SVG Export Plug-In . SVG Version: 6.00 Build 0)  -->
<!DOCTYPE svg PUBLIC "-//W3C//DTD SVG 1.0//EN" "http://www.w3.org/TR/2001/REC-SVG-20010904/DTD/svg10.dtd">
<svg version="1.0" id="Layer_1" xmlns="http://www.w3.org/2000/svg" xmlns:xlink="http://www.w3.org/1999/xlink" x="0px" y="0px"
	 width="250px" height="250px" viewBox="0 0 250 250" enable-background="new 0 0 250 250" xml:space="preserve">
<g>
	<g>
		<path d="M124.5,52.625c-45.479,0-82.479,37.086-82.479,82.671c0,23.117,9.438,44.786,27.294,61.87L69.75,198h109.494l0.436-0.834
			c17.858-17.086,27.299-38.564,27.299-61.718C206.979,89.895,169.979,52.625,124.5,52.625z M178.038,195H70.957
			c-16.971-17-25.936-37.191-25.936-59.285c0-43.93,35.654-79.881,79.479-79.881s79.479,36.029,79.479,79.929
			C203.979,157.891,195.012,178,178.038,195z"/>
		<rect x="123" y="68" width="3" height="19"/>
		<rect x="174" y="132" width="19" height="3"/>
		<rect x="57" y="132" width="19" height="3"/>
		<rect x="73.77" y="91.088" transform="matrix(-0.7071 -0.7071 0.7071 -0.7071 76.6672 217.3087)" width="19.135" height="3.377"/>
		<rect x="158.188" y="91.088" transform="matrix(0.7071 -0.7071 0.7071 0.7071 -16.4706 145.788)" width="19.135" height="3.377"/>
		<path d="M123.065,96.925l-5.212,69.183l-0.099,1.596L117.059,170h0.371h0.524c0.699,3,3.19,5.336,7.021,5.336
			c3.87,0,6.372-2.336,7.041-5.336h0.372l-6.333-72.674L123.065,96.925z M129.188,167.592c-0.129,2.736-1.429,3.957-4.212,3.957
			c-2.784,0-4.083-1.221-4.213-3.958l-0.007-0.099l3.918-51.987l4.532,51.698L129.188,167.592z"/>
	</g>
</g>
</svg>
