<?xml version="1.0" encoding="utf-8"?>
<!-- Generator: Adobe Illustrator 16.0.0, SVG Export Plug-In . SVG Version: 6.00 Build 0)  -->
<!DOCTYPE svg PUBLIC "-//W3C//DTD SVG 1.0//EN" "http://www.w3.org/TR/2001/REC-SVG-20010904/DTD/svg10.dtd">
<svg version="1.0" id="Layer_1" xmlns="http://www.w3.org/2000/svg" xmlns:xlink="http://www.w3.org/1999/xlink" x="0px" y="0px"
	 width="250px" height="250px" viewBox="0 0 250 250" enable-background="new 0 0 250 250" xml:space="preserve">
<g>
	<path d="M195.619,158.137c-1.938-1.934-4.513-2.998-7.248-2.998c-2.734,0-5.306,1.065-7.238,2.999
		c-0.175,0.175-0.334,0.36-0.495,0.546l-47.731-29.869c0.3-0.933,0.462-1.898,0.488-2.869l36.092-0.037
		c0.671,5.01,4.958,8.889,10.142,8.889c5.649,0,10.246-4.601,10.246-10.256c0-5.648-4.597-10.244-10.246-10.244
		c-5.19,0-9.481,3.885-10.145,8.896l-36.376,0.037c-0.394-1.631-1.191-3.179-2.392-4.491l41.051-42.554
		c1.699,1.252,3.791,2.002,6.059,2.002c5.648,0,10.244-4.596,10.244-10.244c0-5.654-4.596-10.254-10.244-10.254
		c-5.649,0-10.245,4.6-10.245,10.254c0,2.473,0.881,4.743,2.345,6.515l-41.013,42.708c-1.182-0.801-1.912-1.336-3.912-1.587V61.805
		c2-0.364,3.924-1.334,5.426-2.834c3.982-3.994,3.98-10.494-0.004-14.491c-1.938-1.936-4.514-3.001-7.253-3.001
		c-2.736,0-5.31,1.063-7.248,2.996c-3.993,3.991-3.985,10.495,0.012,14.497c1.651,1.654,4.066,2.666,6.066,2.927v53.586
		c-1,0.164-2.823,0.634-4.059,1.369l-39-39.496c1.237-1.693,1.976-3.771,1.976-6.023c0-5.654-4.596-10.254-10.245-10.254
		s-10.245,4.6-10.245,10.254c0,5.648,4.596,10.244,10.244,10.244c2.403,0,4.611-0.838,6.36-2.229l38.692,39.275
		c-1.255,1.328-2.083,2.911-2.49,4.581l-42.451-0.111c-0.287-2.233-1.289-4.301-2.908-5.919c-1.937-1.938-4.51-3.005-7.245-3.005
		c-2.736,0-5.309,1.067-7.243,3.004c-1.938,1.936-3.004,4.51-3.004,7.249c0,2.737,1.066,5.312,3.005,7.252
		c1.935,1.928,4.505,2.989,7.237,2.989l0,0c2.737,0,5.312-1.065,7.249-3c1.604-1.604,2.601-3.647,2.899-5.855l42.169,0.111
		c0.013,0.463,0.057,0.925,0.132,1.382l-42.291,17.475c-1.775-3.054-5.076-5.117-8.855-5.117c-5.648,0-10.244,4.596-10.244,10.244
		s4.596,10.244,10.244,10.244s10.244-4.596,10.244-10.244c0-0.906-0.13-1.781-0.353-2.618l42.049-17.372
		c0.493,1.082,1.174,2.1,2.062,2.989c0.196,0.197,0.404,0.38,0.614,0.559L95.869,169.23c-1.243-0.522-2.589-0.799-3.976-0.799
		c-2.734,0-5.306,1.065-7.238,2.999c-1.937,1.935-3.002,4.508-3.001,7.244c0.001,2.74,1.07,5.317,3.013,7.256
		c1.931,1.929,4.502,2.991,7.239,2.991s5.311-1.062,7.251-2.994c3.985-4.003,3.984-10.503-0.005-14.492
		c-0.299-0.299-0.618-0.568-0.945-0.824l20.622-35.679c1.343,0.63,2.814,0.974,4.343,0.974c0.401,0,0.798-0.029,1.19-0.075
		l12.465,54.145c-3.876,1.462-6.646,5.198-6.646,9.579c0,5.654,4.596,10.254,10.244,10.254c5.65,0,10.247-4.6,10.247-10.254
		c0-5.648-4.597-10.244-10.247-10.244c-0.321,0-0.64,0.02-0.954,0.049l-12.475-54.192c1.267-0.509,2.431-1.271,3.426-2.265
		c0.501-0.502,0.938-1.045,1.313-1.617l47.41,29.666c-0.659,1.369-1.018,2.875-1.017,4.438c0.001,2.736,1.068,5.308,3.002,7.235
		c1.937,1.944,4.513,3.015,7.254,3.015h0.001c2.735,0,5.306-1.067,7.235-3.003C199.618,168.637,199.617,162.134,195.619,158.137z
		 M61.927,157.148c-3.995,0-7.244-3.25-7.244-7.244s3.249-7.244,7.244-7.244c3.994,0,7.244,3.25,7.244,7.244
		S65.921,157.148,61.927,157.148z M97.035,183.807c-1.369,1.364-3.191,2.115-5.129,2.115c-1.937,0-3.755-0.75-5.12-2.114
		c-1.374-1.372-2.132-3.195-2.132-5.134c-0.001-1.935,0.753-3.753,2.122-5.121c1.367-1.368,3.185-2.121,5.117-2.121
		c1.938,0,3.764,0.756,5.14,2.127C99.853,176.379,99.852,180.978,97.035,183.807z M147.672,199.555c0,4-3.251,7.254-7.247,7.254
		c-3.994,0-7.244-3.254-7.244-7.254c0-3.994,3.25-7.244,7.244-7.244C144.421,192.311,147.672,195.561,147.672,199.555z
		 M179.628,117.297c3.995,0,7.246,3.25,7.246,7.244c0,4.001-3.251,7.256-7.246,7.256c-3.994,0-7.244-3.255-7.244-7.256
		C172.384,120.547,175.634,117.297,179.628,117.297z M177.825,60.689c3.995,0,7.244,3.254,7.244,7.254
		c0,3.994-3.249,7.244-7.244,7.244s-7.245-3.25-7.245-7.244C170.58,63.943,173.83,60.689,177.825,60.689z M118.041,46.598
		c1.37-1.367,3.19-2.119,5.127-2.119c1.938,0,3.761,0.754,5.13,2.121c2.817,2.827,2.817,7.427,0.002,10.251
		c-1.37,1.368-3.191,2.122-5.128,2.122c-1.936,0-3.754-0.753-5.12-2.12C115.223,54.02,115.219,49.419,118.041,46.598z
		 M70.671,78.578c-3.995,0-7.244-3.25-7.244-7.244c0-4,3.249-7.254,7.244-7.254c3.994,0,7.244,3.254,7.244,7.254
		C77.915,75.328,74.665,78.578,70.671,78.578z M65.753,129.542c-1.371,1.369-3.192,2.123-5.129,2.123
		c-1.933,0-3.751-0.751-5.117-2.112c-1.371-1.371-2.125-3.192-2.125-5.129c0-1.938,0.754-3.758,2.125-5.127
		c1.369-1.371,3.188-2.126,5.122-2.126c1.934,0,3.753,0.755,5.124,2.127c1.369,1.368,2.124,3.188,2.124,5.122
		S67.122,128.174,65.753,129.542z M128.3,130.782c-1.371,1.369-3.191,2.124-5.128,2.124c-1.936,0-3.754-0.754-5.12-2.122
		c-2.829-2.833-2.833-7.434-0.011-10.255c1.369-1.366,3.19-2.118,5.127-2.118c1.938,0,3.761,0.754,5.13,2.12
		C131.115,123.358,131.115,127.958,128.3,130.782z M193.498,170.518c-1.364,1.368-3.18,2.122-5.112,2.122h-0.001
		c-1.938,0-3.759-0.757-5.133-2.136c-1.368-1.364-2.122-3.182-2.123-5.116c-0.001-1.937,0.754-3.758,2.125-5.128
		c1.367-1.368,3.185-2.121,5.117-2.121c1.936,0,3.758,0.754,5.129,2.121C196.327,163.086,196.326,167.687,193.498,170.518z"/>
</g>
</svg>
