<?xml version="1.0" encoding="utf-8"?>
<!-- Generator: Adobe Illustrator 16.0.0, SVG Export Plug-In . SVG Version: 6.00 Build 0)  -->
<!DOCTYPE svg PUBLIC "-//W3C//DTD SVG 1.1//EN" "http://www.w3.org/Graphics/SVG/1.1/DTD/svg11.dtd">
<svg version="1.1" id="Layer_1" xmlns="http://www.w3.org/2000/svg" xmlns:xlink="http://www.w3.org/1999/xlink" x="0px" y="0px"
	 width="69px" height="69px" viewBox="0 0 69 69" enable-background="new 0 0 69 69" xml:space="preserve">
<path fill="#485057" d="M9.878,25.166v18.668h20.903v-3.689h7.732v3.689h20.608V25.166H9.878z M58.122,42.834H57.04v-3.189h-1v3.189
	h-2.043v-3.189h-1v3.189h-2.042v-3.189h-1v3.189h-2.041v-3.189h-1v3.189h-2.041v-3.189h-1v3.189h-2.044v-3.189h-1v3.189h-1.315
	v-3.689h-9.732v3.689h-1.395v-3.189h-1v3.189h-2.043v-3.189h-1v3.189h-2.041v-3.189h-1v3.189h-2.041v-3.189h-1v3.189H16.22v-3.189
	h-1v3.189h-2.044v-3.189h-1v3.189h-1.298V26.166h47.244V42.834z"/>
</svg>
