<?xml version="1.0" encoding="utf-8"?>
<!-- Generator: Adobe Illustrator 16.0.0, SVG Export Plug-In . SVG Version: 6.00 Build 0)  -->
<!DOCTYPE svg PUBLIC "-//W3C//DTD SVG 1.1//EN" "http://www.w3.org/Graphics/SVG/1.1/DTD/svg11.dtd">
<svg version="1.1" id="Layer_1" xmlns="http://www.w3.org/2000/svg" xmlns:xlink="http://www.w3.org/1999/xlink" x="0px" y="0px"
	 width="70px" height="70px" viewBox="0 0 70 70" enable-background="new 0 0 70 70" xml:space="preserve">
<path fill="#485057" d="M69.732,61.509L46.145,37.875c2.231-3.688,3.587-7.995,3.587-12.644c0-13.577-11.053-24.627-24.629-24.627
	c-13.576,0-24.627,11.051-24.627,24.627c0,13.579,11.052,24.627,24.627,24.627c4.783,0,9.22-1.417,12.98-3.781l23.557,23.526
	L69.732,61.509z M6.201,25.231c0-10.414,8.484-18.898,18.899-18.898S44,14.817,44,25.231c0,10.417-8.485,18.899-18.9,18.899
	S6.201,35.647,6.201,25.231z"/>
</svg>
