<?xml version="1.0" encoding="utf-8"?>
<!-- Generator: Adobe Illustrator 16.0.0, SVG Export Plug-In . SVG Version: 6.00 Build 0)  -->
<!DOCTYPE svg PUBLIC "-//W3C//DTD SVG 1.1//EN" "http://www.w3.org/Graphics/SVG/1.1/DTD/svg11.dtd">
<svg version="1.1" id="Layer_1" xmlns="http://www.w3.org/2000/svg" xmlns:xlink="http://www.w3.org/1999/xlink" x="0px" y="0px"
	 width="70px" height="70px" viewBox="0 0 70 70" enable-background="new 0 0 70 70" xml:space="preserve">
<g>
	<path d="M26.258,39.046c-0.356-0.562-0.651-1.164-0.881-1.8L13.734,42.05c-0.821-1.091-2.116-1.808-3.584-1.808
		c-2.486,0-4.509,2.018-4.509,4.496c0,2.49,2.022,4.514,4.509,4.514c2.48,0,4.499-2.023,4.499-4.514
		c0-0.297-0.033-0.585-0.087-0.865L26.258,39.046z"/>
	<path d="M30.201,42.481l-4.992,12.015c-0.302-0.062-0.611-0.099-0.926-0.099c-1.202,0-2.334,0.467-3.188,1.318
		c-0.853,0.855-1.32,1.99-1.316,3.197c0.003,1.203,0.474,2.33,1.323,3.176c0.851,0.848,1.981,1.314,3.186,1.314
		s2.336-0.467,3.192-1.316c1.744-1.752,1.745-4.607-0.005-6.375c-0.14-0.139-0.298-0.251-0.452-0.368l5.081-12.229
		C31.438,42.974,30.804,42.757,30.201,42.481z"/>
	<polygon points="41,33 35,33 35,27 33,27 33,33 27,33 27,35 33,35 33,41 35,41 35,35 41,35 	"/>
	<path d="M9.675,39.041c1.207,0,2.342-0.473,3.187-1.326c0.633-0.627,1.054-1.413,1.229-2.271l10.845,0.038
		c-0.065-0.439-0.109-0.886-0.109-1.344c0-0.222,0.018-0.438,0.033-0.656l-10.823-0.038c-0.195-0.786-0.584-1.512-1.171-2.099
		c-0.851-0.854-1.981-1.322-3.185-1.322s-2.335,0.469-3.188,1.32c-1.758,1.76-1.757,4.621,0.001,6.381
		C7.345,38.574,8.475,39.041,9.675,39.041z"/>
	<path d="M48.35,35.501c0.428,2.043,2.242,3.583,4.411,3.583c2.483,0,4.504-2.021,4.504-4.506c0-2.48-2.021-4.5-4.504-4.5
		c-2.111,0-3.876,1.463-4.363,3.423l-5.257,0.01c0.014,0.208,0.032,0.416,0.032,0.628c0,0.468-0.046,0.923-0.114,1.372L48.35,35.501
		z"/>
	<path d="M63.792,47.768c-0.853-0.852-1.985-1.322-3.188-1.322c-1.169,0-2.267,0.452-3.107,1.259
		c0.006-0.007,0.012-0.015,0.019-0.021L42.25,38.129c-0.293,0.605-0.647,1.174-1.06,1.695l15.217,9.523
		c-0.607,1.605-0.275,3.492,1.012,4.793c0.852,0.85,1.982,1.316,3.187,1.316s2.336-0.467,3.19-1.322
		C65.539,52.373,65.537,49.518,63.792,47.768z"/>
	<path d="M35.572,9.937l-1.213,15.046c0.683,0.027,1.346,0.127,1.982,0.295l1.227-15.221c0.916-0.154,1.763-0.576,2.436-1.246
		c1.749-1.756,1.749-4.611-0.002-6.367c-0.853-0.852-1.985-1.32-3.19-1.32s-2.337,0.469-3.187,1.32
		c-0.852,0.852-1.319,1.982-1.318,3.186s0.471,2.334,1.321,3.182C34.174,9.359,34.846,9.729,35.572,9.937z"/>
	<path d="M41.165,28.419c0.417,0.521,0.773,1.091,1.07,1.696l14.589-10.796c0.743,0.491,1.679,0.78,2.758,0.78
		c2.609,0,4.504-1.711,4.504-4.068c0-2.488-2.021-4.514-4.504-4.514c-2.481,0-4.499,2.025-4.499,4.514
		c0,0.659,0.151,1.256,0.409,1.785L41.165,28.419z"/>
	<path d="M9.397,20.305c1.168,0,2.263-0.451,3.098-1.252l13.664,10.343c0.348-0.574,0.753-1.107,1.214-1.59l-13.702-10.37
		c-0.224,0.527-0.548,1.013-0.967,1.428c-0.023,0.023-0.05,0.042-0.076,0.062c0.819-0.836,1.276-1.939,1.279-3.117
		c0.003-1.211-0.465-2.346-1.318-3.199c-0.851-0.854-1.981-1.322-3.185-1.322s-2.335,0.469-3.188,1.32
		c-1.757,1.76-1.757,4.621,0.001,6.381C7.068,19.838,8.198,20.305,9.397,20.305z"/>
	<path d="M41.444,59.862L37.48,42.624c-0.611,0.251-1.257,0.433-1.926,0.547l3.934,17.115c-1.538,0.717-2.612,2.269-2.612,4.075
		c0,2.49,2.019,4.516,4.5,4.516c2.488,0,4.513-2.025,4.513-4.516C45.889,61.9,43.9,59.899,41.444,59.862z"/>
</g>
</svg>
