<?xml version="1.0" encoding="utf-8"?>
<!-- Generator: Adobe Illustrator 16.0.0, SVG Export Plug-In . SVG Version: 6.00 Build 0)  -->
<!DOCTYPE svg PUBLIC "-//W3C//DTD SVG 1.1//EN" "http://www.w3.org/Graphics/SVG/1.1/DTD/svg11.dtd">
<svg version="1.1" id="Layer_1" xmlns="http://www.w3.org/2000/svg" xmlns:xlink="http://www.w3.org/1999/xlink" x="0px" y="0px"
	 width="70px" height="70px" viewBox="0 0 70 70" enable-background="new 0 0 70 70" xml:space="preserve">
<g>
	<path d="M36.889,62.522c-8.26,0-15.759-3.306-21.256-8.658l-1.227,1.304c5.214,6.747,13.338,11.294,22.455,11.294
		c13.025,0,24.027-9.273,27.396-21.001C59.283,55.558,48.886,62.522,36.889,62.522z"/>
	<path d="M10.395,47.099c-0.355-0.624-0.697-1.257-1.009-1.907c0.194,0.705,0.415,1.401,0.664,2.087L10.395,47.099z"/>
	<polygon points="4.615,52.375 9.178,57.806 23.645,42.432 	"/>
	<path d="M27.971,37.913l1.192,1.572L17.002,52.409c5.139,5.015,12.156,8.113,19.887,8.113c15.713,0,28.496-12.781,28.496-28.492
		S52.602,3.538,36.889,3.538c-15.712,0-28.494,12.781-28.494,28.492c0,5.145,1.378,9.971,3.773,14.142L27.971,37.913z M30,31h6v-6h2
		v6h6v2h-6v6h-2v-6h-6V31z"/>
</g>
</svg>
