<?xml version="1.0" encoding="utf-8"?>
<!-- Generator: Adobe Illustrator 16.0.0, SVG Export Plug-In . SVG Version: 6.00 Build 0)  -->
<!DOCTYPE svg PUBLIC "-//W3C//DTD SVG 1.1//EN" "http://www.w3.org/Graphics/SVG/1.1/DTD/svg11.dtd">
<svg version="1.1" id="Layer_1" xmlns="http://www.w3.org/2000/svg" xmlns:xlink="http://www.w3.org/1999/xlink" x="0px" y="0px"
	 width="70px" height="70px" viewBox="0 0 70 70" enable-background="new 0 0 70 70" xml:space="preserve">
<g>
	<path d="M26.258,39.046c-0.355-0.562-0.65-1.164-0.881-1.8L13.734,42.05c-0.821-1.091-2.115-1.808-3.584-1.808
		c-2.486,0-4.509,2.018-4.509,4.496c0,2.49,2.022,4.514,4.509,4.514c2.48,0,4.499-2.023,4.499-4.514
		c0-0.297-0.032-0.585-0.087-0.865L26.258,39.046z M10.15,47.252c-1.384,0-2.509-1.127-2.509-2.514c0-1.375,1.125-2.496,2.509-2.496
		c1.378,0,2.499,1.121,2.499,2.496C12.649,46.125,11.528,47.252,10.15,47.252z"/>
	<path d="M30.201,42.481l-4.992,12.015c-0.302-0.062-0.611-0.099-0.926-0.099c-1.202,0-2.334,0.467-3.188,1.318
		c-0.853,0.855-1.32,1.99-1.316,3.197c0.003,1.203,0.474,2.33,1.323,3.176c0.851,0.848,1.981,1.314,3.186,1.314
		s2.336-0.467,3.192-1.316c1.744-1.752,1.745-4.607-0.005-6.375c-0.141-0.139-0.299-0.251-0.452-0.368l5.081-12.229
		C31.439,42.974,30.805,42.757,30.201,42.481z M26.066,60.671c-0.949,0.943-2.604,0.945-3.554,0
		c-0.473-0.469-0.733-1.096-0.734-1.762c-0.002-0.672,0.258-1.305,0.73-1.777c0.475-0.475,1.105-0.734,1.774-0.734
		c0.671,0,1.305,0.262,1.777,0.729C27.033,58.108,27.034,59.7,26.066,60.671z"/>
	<polygon points="41,33 35,33 35,27 33,27 33,33 27,33 27,35 33,35 33,41 35,41 35,35 41,35 	"/>
	<path d="M9.676,39.041c1.207,0,2.342-0.473,3.186-1.326c0.634-0.627,1.055-1.413,1.229-2.271l10.845,0.038
		c-0.064-0.439-0.109-0.886-0.109-1.344c0-0.222,0.018-0.438,0.033-0.656l-10.822-0.038c-0.195-0.786-0.584-1.512-1.172-2.099
		c-0.85-0.854-1.98-1.322-3.184-1.322s-2.336,0.469-3.189,1.32c-1.758,1.76-1.756,4.621,0.002,6.381
		C7.346,38.574,8.475,39.041,9.676,39.041z M7.906,32.758c0.475-0.473,1.105-0.734,1.775-0.734c0.668,0,1.295,0.26,1.77,0.734
		s0.734,1.107,0.732,1.781c-0.002,0.668-0.26,1.291-0.736,1.762c-0.473,0.479-1.102,0.74-1.771,0.74c-0.668,0-1.295-0.26-1.77-0.732
		C6.93,35.33,6.93,33.738,7.906,32.758z"/>
	<path d="M48.351,35.501c0.428,2.043,2.242,3.583,4.411,3.583c2.483,0,4.504-2.021,4.504-4.506c0-2.48-2.021-4.5-4.504-4.5
		c-2.111,0-3.876,1.463-4.363,3.423l-5.256,0.01c0.014,0.208,0.031,0.416,0.031,0.628c0,0.468-0.046,0.923-0.113,1.372
		L48.351,35.501z M52.762,32.078c1.381,0,2.504,1.121,2.504,2.5c0,1.381-1.123,2.506-2.504,2.506c-1.383,0-2.508-1.125-2.508-2.506
		C50.254,33.199,51.379,32.078,52.762,32.078z"/>
	<path d="M63.793,47.768c-0.853-0.852-1.985-1.322-3.188-1.322c-1.169,0-2.267,0.452-3.107,1.259
		c0.007-0.007,0.012-0.015,0.019-0.021L42.25,38.129c-0.293,0.605-0.646,1.174-1.06,1.695l15.218,9.523
		c-0.607,1.605-0.275,3.492,1.012,4.793c0.852,0.85,1.982,1.316,3.187,1.316s2.336-0.467,3.19-1.322
		C65.539,52.373,65.537,49.518,63.793,47.768z M62.379,52.725c-0.945,0.947-2.603,0.939-3.542,0.004
		c-0.974-0.982-0.976-2.574-0.002-3.547c0.473-0.475,1.102-0.736,1.77-0.736c0.669,0,1.299,0.262,1.773,0.736
		C63.348,50.154,63.347,51.746,62.379,52.725z"/>
	<path d="M35.572,9.937l-1.213,15.046c0.683,0.027,1.346,0.127,1.982,0.295l1.227-15.221c0.915-0.154,1.762-0.576,2.436-1.246
		c1.749-1.756,1.749-4.611-0.002-6.367c-0.853-0.852-1.985-1.32-3.19-1.32s-2.337,0.469-3.187,1.32
		c-0.852,0.852-1.319,1.982-1.318,3.186s0.471,2.334,1.321,3.182C34.175,9.359,34.846,9.729,35.572,9.937z M35.04,3.857
		c0.473-0.475,1.102-0.734,1.771-0.734c0.671,0,1.302,0.262,1.775,0.734c0.974,0.977,0.974,2.564,0.002,3.539
		c-0.949,0.945-2.601,0.949-3.547,0c-0.474-0.473-0.735-1.102-0.735-1.77C34.306,4.959,34.566,4.33,35.04,3.857z"/>
	<path d="M41.165,28.419c0.417,0.521,0.773,1.091,1.069,1.696l14.59-10.796c0.742,0.491,1.678,0.78,2.758,0.78
		c2.609,0,4.504-1.711,4.504-4.068c0-2.488-2.021-4.514-4.504-4.514c-2.481,0-4.499,2.025-4.499,4.514
		c0,0.659,0.151,1.256,0.409,1.785L41.165,28.419z M59.582,13.518c1.381,0,2.504,1.129,2.504,2.514c0,1.527-1.349,2.068-2.504,2.068
		c-1.153,0-2.499-0.541-2.499-2.068C57.083,14.646,58.204,13.518,59.582,13.518z"/>
	<path d="M9.397,20.305c1.169,0,2.263-0.451,3.098-1.252l13.663,10.343c0.348-0.574,0.754-1.107,1.215-1.59l-13.701-10.37
		c-0.225,0.527-0.549,1.013-0.968,1.428c-0.023,0.023-0.05,0.042-0.075,0.062c0.818-0.836,1.275-1.939,1.278-3.117
		c0.003-1.211-0.465-2.346-1.318-3.199c-0.851-0.854-1.981-1.322-3.185-1.322s-2.335,0.469-3.188,1.32
		c-1.757,1.76-1.757,4.621,0.001,6.381C7.068,19.838,8.198,20.305,9.397,20.305z M7.63,14.021c0.475-0.473,1.105-0.734,1.774-0.734
		c0.668,0,1.296,0.26,1.77,0.734c0.475,0.475,0.735,1.107,0.733,1.781c-0.002,0.668-0.261,1.291-0.736,1.762
		c-0.944,0.955-2.593,0.955-3.54,0.01C6.652,16.596,6.652,15.002,7.63,14.021z"/>
	<path d="M41.444,59.862L37.48,42.624c-0.611,0.251-1.257,0.433-1.926,0.547l3.934,17.115c-1.537,0.717-2.611,2.269-2.611,4.075
		c0,2.49,2.019,4.516,4.5,4.516c2.488,0,4.513-2.025,4.513-4.516C45.89,61.9,43.9,59.899,41.444,59.862z M41.377,66.877
		c-1.379,0-2.5-1.129-2.5-2.516c0-1.381,1.121-2.506,2.5-2.506c1.386,0,2.513,1.125,2.513,2.506
		C43.89,65.771,42.786,66.877,41.377,66.877z"/>
</g>
</svg>
