<?xml version="1.0" encoding="utf-8"?>
<!-- Generator: Adobe Illustrator 16.0.0, SVG Export Plug-In . SVG Version: 6.00 Build 0)  -->
<!DOCTYPE svg PUBLIC "-//W3C//DTD SVG 1.1//EN" "http://www.w3.org/Graphics/SVG/1.1/DTD/svg11.dtd">
<svg version="1.1" id="Layer_1" xmlns="http://www.w3.org/2000/svg" xmlns:xlink="http://www.w3.org/1999/xlink" x="0px" y="0px"
	 width="70px" height="70px" viewBox="0 0 70 70" enable-background="new 0 0 70 70" xml:space="preserve">
<path d="M8.395,45.099c-0.355-0.624-0.697-1.257-1.009-1.907c0.194,0.705,0.415,1.401,0.664,2.087L8.395,45.099z"/>
<g>
	<path d="M67.951,32.031c0-16.814-13.681-30.494-30.496-30.494c-16.814,0-30.494,13.681-30.494,30.494
		C6.961,34.074,7.167,36,7.552,38H6.961c0,4,0.676,6.967,1.891,10.201l-6.803,3.554l7.611,9.058l3.948-4.195
		c5.586,7.078,14.183,11.846,23.819,11.846C54.227,68.463,67.894,54,67.894,38h-0.532C67.746,36,67.951,34.074,67.951,32.031z
		 M9.744,57.805l-4.562-5.431l4.43-2.314l1.77-0.925l2.258-1.18l0.149-0.078l10.423-5.446L9.744,57.805z M9.952,45.19
		c0.312,0.649,0.649,1.285,1.006,1.908l-0.331,0.174C10.375,46.588,10.146,45.895,9.952,45.19z M37.428,66.461
		c-9.117,0-17.24-4.549-22.451-11.298l1.229-1.307c5.496,5.354,12.988,8.665,21.249,8.665c11.997,0,22.395-6.965,27.369-17.062
		C61.455,57.188,50.453,66.461,37.428,66.461z M37.455,60.521c-7.73,0-14.743-3.104-19.881-8.119l12.155-12.918l-1.192-1.572
		L12.73,46.173c-2.396-4.17-3.77-8.999-3.77-14.144c0-15.711,12.782-28.492,28.494-28.492c15.713,0,28.496,12.781,28.496,28.492
		S53.168,60.521,37.455,60.521z"/>
	<polygon points="38,25 36,25 36,31 30,31 30,33 36,33 36,39 38,39 38,33 44,33 44,31 38,31 	"/>
</g>
</svg>
