<?xml version="1.0" encoding="utf-8"?>
<!-- Generator: Adobe Illustrator 16.0.0, SVG Export Plug-In . SVG Version: 6.00 Build 0)  -->
<!DOCTYPE svg PUBLIC "-//W3C//DTD SVG 1.1//EN" "http://www.w3.org/Graphics/SVG/1.1/DTD/svg11.dtd">
<svg version="1.1" xmlns="http://www.w3.org/2000/svg" xmlns:xlink="http://www.w3.org/1999/xlink" x="0px" y="0px" width="280px"
	 height="280px" viewBox="0 0 280 280" enable-background="new 0 0 280 280" xml:space="preserve">
<g id="Layer_1">
	<path d="M3.5,84.5v112h115v-22h43v22h113v-112H3.5z M31.5,192.5h-8v-22h8V192.5z M49.5,192.5h-8v-22h8V192.5z M67.5,192.5h-7v-22h7
		V192.5z M85.5,192.5h-8v-22h8V192.5z M103.5,192.5h-7v-22h7V192.5z M183.5,192.5h-8v-22h8V192.5z M201.5,192.5h-8v-22h8V192.5z
		 M219.5,192.5h-8v-22h8V192.5z M237.5,192.5h-8v-22h8V192.5z M255.5,192.5h-8v-22h8V192.5z"/>
</g>
<g id="nyt_x5F_exporter_x5F_info" display="none">
</g>
</svg>
