<?xml version="1.0" encoding="utf-8"?>
<!-- Generator: Adobe Illustrator 16.0.0, SVG Export Plug-In . SVG Version: 6.00 Build 0)  -->
<!DOCTYPE svg PUBLIC "-//W3C//DTD SVG 1.1//EN" "http://www.w3.org/Graphics/SVG/1.1/DTD/svg11.dtd">
<svg version="1.1" xmlns="http://www.w3.org/2000/svg" xmlns:xlink="http://www.w3.org/1999/xlink" x="0px" y="0px" width="70px"
	 height="70px" viewBox="0 0 70 70" enable-background="new 0 0 70 70" xml:space="preserve">
<g id="Layer_1">
	<g>
		<path d="M61.5,34.5V19.571c0-0.564,1-1.423,1-2.36v-2.769c0-1.67-1.657-2.942-3.326-2.942h-0.512
			c-1.671,0-3.162,1.272-3.162,2.942v2.769c0,0.935,1,1.792,1,2.359V34.5h-55v26h66v-26H61.5z M58.012,18.128
			c-0.354-0.174-0.512-0.534-0.512-0.917v-2.769c0-0.567,0.594-0.942,1.162-0.942h0.512c0.566,0,1.326,0.375,1.326,0.942v2.769
			c0,0.391-0.151,0.742-0.508,0.916L59.5,18.4v16.1h-1V18.403L58.012,18.128z M65.5,58.5h-62v-22h53.273h4.288H65.5V58.5z"/>
		<path d="M56.488,47.199c0,1.579,1.281,2.863,2.856,2.863c1.575,0,2.856-1.284,2.856-2.863c0-1.577-1.281-2.859-2.856-2.859
			C57.769,44.34,56.488,45.622,56.488,47.199z M60.2,47.199c0,0.476-0.384,0.863-0.856,0.863s-0.856-0.388-0.856-0.863
			c0-0.474,0.384-0.859,0.856-0.859S60.2,46.726,60.2,47.199z"/>
		<path d="M50.2,44.34c-1.575,0-2.857,1.282-2.857,2.859c0,1.579,1.282,2.863,2.857,2.863c1.578,0,2.861-1.284,2.861-2.863
			C53.061,45.622,51.778,44.34,50.2,44.34z M50.2,48.062c-0.473,0-0.857-0.388-0.857-0.863c0-0.474,0.384-0.859,0.857-0.859
			c0.467,0,0.861,0.394,0.861,0.859C51.061,47.675,50.675,48.062,50.2,48.062z"/>
		<path d="M41.053,44.34c-1.575,0-2.856,1.282-2.856,2.859c0,1.579,1.281,2.863,2.856,2.863c1.575,0,2.856-1.284,2.856-2.863
			C43.909,45.622,42.628,44.34,41.053,44.34z M41.053,48.062c-0.472,0-0.856-0.388-0.856-0.863c0-0.474,0.384-0.859,0.856-0.859
			s0.856,0.386,0.856,0.859C41.909,47.675,41.525,48.062,41.053,48.062z"/>
	</g>
</g>
<g id="nyt_x5F_exporter_x5F_info" display="none">
</g>
</svg>
