<?xml version="1.0" encoding="utf-8"?>
<!-- Generator: Adobe Illustrator 16.0.0, SVG Export Plug-In . SVG Version: 6.00 Build 0)  -->
<!DOCTYPE svg PUBLIC "-//W3C//DTD SVG 1.1//EN" "http://www.w3.org/Graphics/SVG/1.1/DTD/svg11.dtd">
<svg version="1.1" xmlns="http://www.w3.org/2000/svg" xmlns:xlink="http://www.w3.org/1999/xlink" x="0px" y="0px" width="70px"
	 height="70px" viewBox="0 0 70 70" enable-background="new 0 0 70 70" xml:space="preserve">
<g id="Layer_1">
	<path d="M63.072,20.373c-1.754,0-3.181,1.43-3.181,3.188c0,0.127,0.021,0.246,0.036,0.367l-10.354,2.985
		c-0.511-1.073-1.599-1.822-2.866-1.822c-1.755,0-3.184,1.424-3.184,3.174c0,1.755,1.429,3.184,3.184,3.184
		c1.754,0,3.181-1.429,3.181-3.184c0-0.224-0.024-0.44-0.068-0.651l10.282-2.964c0.193,0.483,0.522,0.884,0.95,1.187l-7.18,11.033
		c-1.208-0.779-3.038-0.66-4.046,0.359c-1.134,1.133-1.212,2.922-0.261,4.174l-8.455,5.144c-0.572-0.543-1.343-0.882-2.193-0.882
		c-1.108,0-2.084,0.572-2.653,1.435l-5.199-3.764l0,0l-2.047-1.483l2.074-4.795l4.69,0.002c0.085,0.703,0.386,1.355,0.892,1.861
		c0.598,0.605,1.396,0.939,2.248,0.939c0.85,0,1.651-0.333,2.26-0.938c1.224-1.235,1.223-3.252-0.006-4.499
		c-0.835-0.826-2.208-1.047-3.34-0.68l-1.705-3.34c0.598-0.58,0.972-1.388,0.972-2.283c0-1.751-1.431-3.176-3.188-3.176
		c-1.752,0-3.177,1.425-3.177,3.176c0,1.385,0.89,2.554,2.121,2.993l-2.249,5.203l-4.689-0.002l-2.957-15.449
		c1.106-0.431,1.81-1.391,1.81-2.63c0-1.756-1.427-3.186-3.18-3.186c-1.754,0-3.181,1.43-3.181,3.186
		c0,1.453,0.965,2.525,2.418,2.804l-2.831,9.734c-0.2-0.037-0.404-0.059-0.611-0.059c-0.856,0-1.676,0.332-2.243,0.907
		c-0.604,0.595-0.938,1.392-0.938,2.241c-0.002,0.852,0.329,1.651,0.932,2.253c0.09,0.091,0.192,0.162,0.291,0.24L8.284,36.33
		c-0.182-1.582-1.514-2.82-3.145-2.82c-1.754,0-3.181,1.427-3.181,3.18c0,1.754,1.427,3.182,3.181,3.182
		c1.629,0,2.96-1.236,3.144-2.817L21,37.056l4.971,3.509l0.294,1.532c-0.489,0.136-0.946,0.367-1.302,0.72
		c-0.602,0.603-0.933,1.4-0.933,2.249c0.003,0.853,0.336,1.651,0.938,2.249c0.599,0.602,1.398,0.933,2.25,0.933
		s1.65-0.331,2.247-0.932c0.603-0.602,0.935-1.4,0.935-2.251c0-0.585-0.168-1.142-0.463-1.631l5.999,4.343
		c-0.12,0.334-0.197,0.688-0.197,1.063c0,1.758,1.426,3.188,3.179,3.188c1.758,0,3.188-1.43,3.188-3.188
		c0-0.634-0.191-1.221-0.514-1.717l8.505-5.177c0.562,0.449,1.247,0.706,1.98,0.706c0.85,0,1.647-0.33,2.248-0.93
		c1.198-1.21,1.222-3.143,0.09-4.383l7.285-11.152c0.408,0.159,0.867,0.252,1.373,0.252c1.875,0,3.186-1.184,3.186-2.879
		C66.258,21.803,64.828,20.373,63.072,20.373z M46.707,30.706c-1.347,0-2.441-1.095-2.441-2.441c0-1.341,1.095-2.432,2.441-2.432
		c1.345,0,2.438,1.091,2.438,2.432C49.146,29.611,48.052,30.706,46.707,30.706z M38.923,34.263c0.66,0,1.291,0.25,1.729,0.683
		c0.94,0.956,0.942,2.505,0.005,3.452c-0.932,0.928-2.537,0.931-3.457-0.001c-0.459-0.458-0.713-1.069-0.713-1.721
		c-0.001-0.652,0.252-1.266,0.711-1.726C37.633,34.513,38.262,34.263,38.923,34.263z M31.479,28.119
		c0-1.342,1.092-2.434,2.435-2.434c1.349,0,2.446,1.092,2.446,2.434c0,1.349-1.098,2.445-2.446,2.445
		C32.571,30.564,31.479,29.468,31.479,28.119z M33.591,31.273c0.108,0.012,0.213,0.033,0.323,0.033c0.591,0,1.138-0.172,1.612-0.453
		l1.629,3.191c-0.175,0.109-0.338,0.236-0.483,0.382c-0.513,0.515-0.813,1.178-0.893,1.891l-4.368-0.002L33.591,31.273z
		 M5.14,39.129c-1.345,0-2.438-1.094-2.438-2.439c0-1.344,1.094-2.438,2.438-2.438s2.438,1.094,2.438,2.438
		C7.578,38.035,6.484,39.129,5.14,39.129z M28.044,42.063c-0.342-0.081-0.694-0.111-1.047-0.09l-0.149-0.776L28.044,42.063z
		 M30.283,37.057l-1.881,4.349l-1.76-1.274l-0.591-3.076L30.283,37.057z M25.587,39.365l-3.206-2.323l2.791,0.021L25.587,39.365z
		 M19.154,18.234c0-1.348,1.094-2.443,2.438-2.443c1.344,0,2.438,1.096,2.438,2.443c0,1.279-0.979,2.139-2.438,2.139
		C20.134,20.373,19.154,19.514,19.154,18.234z M15.663,35.591c-0.462-0.461-0.716-1.074-0.714-1.728c0-0.65,0.254-1.26,0.719-1.718
		c0.434-0.438,1.061-0.69,1.72-0.69c0.66,0,1.289,0.253,1.729,0.696c0.459,0.454,0.711,1.063,0.711,1.714
		c0,0.653-0.253,1.265-0.715,1.724C18.193,36.513,16.582,36.513,15.663,35.591z M19.168,36.5c0.166-0.113,0.324-0.241,0.469-0.387
		c0.025-0.025,0.044-0.057,0.068-0.083l0.717,0.47H19.168z M20.144,35.43c0.27-0.473,0.426-1.004,0.426-1.564
		c0-0.851-0.331-1.646-0.929-2.238c-0.283-0.286-0.627-0.51-1.005-0.666l2.893-9.851c0.022,0,0.042,0.005,0.064,0.005
		c0.22,0,0.43-0.02,0.633-0.051l2.929,15.249l-3.792-0.002L20.144,35.43z M21.952,37.039l0.01,0.008L21.952,37.039L21.952,37.039z
		 M28.94,46.791c-0.916,0.922-2.527,0.923-3.449-0.001c-0.462-0.459-0.718-1.072-0.719-1.726c0-0.649,0.254-1.262,0.714-1.723
		c0.44-0.437,1.07-0.687,1.729-0.687c0.659,0,1.288,0.25,1.727,0.686c0.462,0.461,0.716,1.073,0.716,1.724
		C29.657,45.716,29.403,46.329,28.94,46.791z M38.917,51.285c-1.344,0-2.437-1.097-2.437-2.445c0-1.342,1.093-2.434,2.437-2.434
		c1.349,0,2.445,1.092,2.445,2.434C41.362,50.188,40.266,51.285,38.917,51.285z M53.799,41.199
		c-0.922,0.919-2.534,0.912-3.446,0.004c-0.947-0.957-0.948-2.505-0.002-3.452c0.437-0.438,1.064-0.69,1.724-0.69
		c0.658,0,1.287,0.252,1.725,0.691C54.744,38.698,54.743,40.245,53.799,41.199z M63.072,25.697c-1.459,0-2.438-0.858-2.438-2.137
		c0-1.349,1.094-2.445,2.438-2.445c1.348,0,2.443,1.097,2.443,2.445C65.516,24.839,64.534,25.697,63.072,25.697z"/>
</g>
<g id="nyt_x5F_exporter_x5F_info" display="none">
</g>
</svg>
