<?xml version="1.0" encoding="utf-8"?>
<!-- Generator: Adobe Illustrator 16.0.0, SVG Export Plug-In . SVG Version: 6.00 Build 0)  -->
<!DOCTYPE svg PUBLIC "-//W3C//DTD SVG 1.1//EN" "http://www.w3.org/Graphics/SVG/1.1/DTD/svg11.dtd">
<svg version="1.1" xmlns="http://www.w3.org/2000/svg" xmlns:xlink="http://www.w3.org/1999/xlink" x="0px" y="0px" width="70px"
	 height="70px" viewBox="0 0 70 70" enable-background="new 0 0 70 70" xml:space="preserve">
<g id="Layer_1">
	<path d="M61.201,31.219c0-14.569-11.857-26.423-26.432-26.423c-14.571,0-26.427,11.854-26.427,26.423
		c0,0.832,0.044,1.654,0.119,2.467c-0.077,0.813-0.119,1.636-0.119,2.469c0,3.334,0.628,6.521,1.761,9.461l-5.868,3.065l6.121,7.272
		l5.724-6.082c4.786,4.799,11.393,7.78,18.689,7.78c11.776,0,21.775-7.744,25.182-18.406c-1.529,12.552-12.244,22.308-25.203,22.308
		c-8.239,0-15.57-3.944-20.213-10.039l-0.694,0.737c4.833,6.259,12.405,10.302,20.907,10.302c14.558,0,26.4-11.843,26.4-26.398
		c0-0.725-0.036-1.441-0.095-2.15C61.149,33.088,61.201,32.159,61.201,31.219z M9.502,38.963c0.613,1.997,1.46,3.894,2.503,5.659
		l-1.006,0.525C10.255,43.188,9.74,41.117,9.502,38.963z M10.397,54.449l-4.594-5.46l19.143-9.999L10.397,54.449z M34.77,56.651
		c-7.031,0-13.404-2.87-18.012-7.5l10.947-11.633l-0.596-0.786l-14.217,7.426c-2.252-3.793-3.55-8.217-3.55-12.939
		C9.343,17.2,20.749,5.796,34.77,5.796c12.251,0,22.504,8.703,24.901,20.25l-7.169,6.062l-10.048,4.489l-7.408-5.663l-1.651-6.772
		l4.45-3.529l-0.621-0.783l-4.09,3.243l-0.725-2.97l-0.971,0.236L33.911,30.5H27.5v1h6.653l0.004,0.015l7.714,5.897l-1.028,17.76
		l0.998,0.059l0.4-6.919l5.407,4.197l0.613-0.789l-5.95-4.618l0.556-9.594l9.839-4.396l6.564,4.907
		C56.288,48.75,46.438,56.651,34.77,56.651z M59.537,36.97l-5.979-4.469l6.318-5.321c0.211,1.316,0.324,2.664,0.324,4.039
		C60.201,33.197,59.967,35.12,59.537,36.97z"/>
</g>
<g id="nyt_x5F_exporter_x5F_info" display="none">
</g>
</svg>
