<?xml version="1.0" encoding="utf-8"?>
<!-- Generator: Adobe Illustrator 16.0.0, SVG Export Plug-In . SVG Version: 6.00 Build 0)  -->
<!DOCTYPE svg PUBLIC "-//W3C//DTD SVG 1.1//EN" "http://www.w3.org/Graphics/SVG/1.1/DTD/svg11.dtd">
<svg version="1.1" xmlns="http://www.w3.org/2000/svg" xmlns:xlink="http://www.w3.org/1999/xlink" x="0px" y="0px" width="280px"
	 height="280px" viewBox="0 0 280 280" enable-background="new 0 0 280 280" xml:space="preserve">
<g id="Layer_1">
	<path d="M37.5,95.5v3.751V152.5h-9V95.256c3-2.082,4-5.197,4-8.602v-9.823c0-6.139-4.155-10.331-10.306-10.331h-1.812
		C14.237,66.5,8.5,70.692,8.5,76.831v9.823c0,3.398,2,6.514,4,8.599V168.5h25v7.764V212.5h8v-36h30v38h91v-38h13v38h91v-38.236
		v-7.844V95.5H37.5z M99.5,210.5h-7v-34h7V210.5z M116.5,210.5h-8v-34h8V210.5z M133.5,210.5h-8v-34h8V210.5z M149.5,210.5h-7v-34h7
		V210.5z M203.5,210.5h-8v-34h8V210.5z M220.5,210.5h-8v-34h8V210.5z M237.5,210.5h-8v-34h8V210.5z M253.5,210.5h-7v-34h7V210.5z"/>
</g>
<g id="nyt_x5F_exporter_x5F_info" display="none">
</g>
</svg>
