<?xml version="1.0" encoding="utf-8"?>
<!-- Generator: Adobe Illustrator 16.0.0, SVG Export Plug-In . SVG Version: 6.00 Build 0)  -->
<!DOCTYPE svg PUBLIC "-//W3C//DTD SVG 1.1//EN" "http://www.w3.org/Graphics/SVG/1.1/DTD/svg11.dtd">
<svg version="1.1" xmlns="http://www.w3.org/2000/svg" xmlns:xlink="http://www.w3.org/1999/xlink" x="0px" y="0px" width="70px"
	 height="70px" viewBox="0 0 70 70" enable-background="new 0 0 70 70" xml:space="preserve">
<g id="Layer_1">
	<path d="M40.761,59.689l-5.374-23.378l20.374,12.751c0.209-0.624,0.545-1.213,1.035-1.711L37.361,35.188l10.426-0.019
		c-0.08-0.334-0.132-0.679-0.132-1.037c0-0.331,0.041-0.652,0.109-0.963l-10.85,0.02l19.328-14.303
		c-0.582-0.38-1.038-0.888-1.339-1.497L35.047,32.083l1.811-22.462c-0.213,0.031-0.426,0.063-0.645,0.063
		c-0.467,0-0.916-0.091-1.348-0.227l-1.842,22.838L12.953,17.104c-0.224,0.527-0.548,1.013-0.967,1.428
		c-0.067,0.068-0.148,0.118-0.219,0.182l19.105,14.462l-17.677-0.062c0.07,0.321,0.114,0.648,0.113,0.985
		c-0.001,0.348-0.051,0.685-0.128,1.015l15.713,0.055L13.01,41.722c0.381,0.544,0.635,1.175,0.746,1.856l18.265-7.537l-7.565,18.208
		c0.667,0.114,1.292,0.377,1.845,0.771l7.297-17.563l5.218,22.701C39.407,59.868,40.062,59.691,40.761,59.689z"/>
	<g>
		<path d="M39.402,1.998c-0.853-0.853-1.985-1.321-3.19-1.321c-1.205,0-2.337,0.47-3.187,1.321
			c-0.851,0.851-1.319,1.981-1.318,3.186c0.001,1.203,0.471,2.333,1.322,3.181c0.848,0.852,1.979,1.32,3.184,1.32
			c1.204,0,2.336-0.469,3.191-1.32C41.153,6.609,41.153,3.754,39.402,1.998z M37.99,6.95c-0.949,0.946-2.601,0.95-3.547,0
			c-0.474-0.473-0.735-1.101-0.736-1.769c0-0.669,0.26-1.297,0.733-1.771c0.473-0.474,1.102-0.734,1.772-0.734
			c0.671,0,1.302,0.262,1.775,0.734C38.961,4.388,38.961,5.976,37.99,6.95z"/>
		<path d="M8.799,38.596c1.208,0,2.342-0.474,3.187-1.327c0.85-0.842,1.319-1.968,1.322-3.17c0.003-1.21-0.465-2.346-1.318-3.199
			c-0.851-0.853-1.981-1.322-3.185-1.322c-1.203,0-2.335,0.469-3.188,1.321c-1.757,1.76-1.757,4.621,0.001,6.38
			C6.469,38.128,7.599,38.596,8.799,38.596z M7.03,32.312c0.475-0.474,1.105-0.735,1.774-0.735c0.668,0,1.296,0.261,1.77,0.735
			c0.475,0.475,0.735,1.107,0.733,1.781c-0.001,0.667-0.261,1.29-0.736,1.761c-0.473,0.479-1.103,0.741-1.772,0.741
			c-0.667,0-1.295-0.261-1.768-0.732C6.053,34.885,6.053,33.292,7.03,32.312z"/>
		<path d="M23.684,54.174c-1.202,0-2.334,0.467-3.188,1.318c-0.853,0.855-1.32,1.99-1.317,3.197c0.003,1.202,0.474,2.33,1.324,3.175
			c0.85,0.848,1.981,1.314,3.186,1.314c1.204,0,2.336-0.466,3.192-1.316c1.744-1.751,1.745-4.607-0.005-6.375
			C26.018,54.64,24.885,54.174,23.684,54.174z M25.467,60.446c-0.949,0.944-2.605,0.946-3.554,0
			c-0.472-0.469-0.733-1.095-0.734-1.762c-0.002-0.672,0.258-1.305,0.73-1.777c0.475-0.474,1.105-0.733,1.775-0.733
			c0.671,0,1.305,0.261,1.777,0.728C26.434,57.884,26.435,59.476,25.467,60.446z"/>
		<path d="M63.193,47.322C62.341,46.47,61.208,46,60.005,46c-1.204,0-2.335,0.47-3.185,1.322c-1.749,1.749-1.75,4.605,0,6.372
			c0.851,0.85,1.982,1.317,3.187,1.317s2.335-0.468,3.19-1.322C64.939,51.928,64.938,49.071,63.193,47.322z M61.779,52.279
			c-0.945,0.946-2.602,0.939-3.542,0.003c-0.974-0.982-0.976-2.573-0.002-3.547C58.708,48.261,59.337,48,60.005,48
			c0.669,0,1.299,0.261,1.773,0.735C62.749,49.709,62.747,51.3,61.779,52.279z"/>
		<path d="M58.982,19.654c2.61,0,4.504-1.711,4.504-4.068c0-2.489-2.021-4.514-4.504-4.514c-2.481,0-4.499,2.024-4.499,4.514
			C54.483,17.981,56.333,19.654,58.982,19.654z M58.982,13.072c1.381,0,2.504,1.128,2.504,2.514c0,1.526-1.349,2.068-2.504,2.068
			c-1.153,0-2.499-0.542-2.499-2.068C56.483,14.2,57.604,13.072,58.982,13.072z"/>
		<path d="M9.329,39.797c-2.486,0-4.509,2.017-4.509,4.496c0,2.489,2.022,4.514,4.509,4.514c2.481,0,4.499-2.024,4.499-4.514
			C13.828,41.813,11.81,39.797,9.329,39.797z M9.329,46.807c-1.383,0-2.509-1.128-2.509-2.514c0-1.376,1.125-2.496,2.509-2.496
			c1.378,0,2.499,1.12,2.499,2.496C11.828,45.679,10.707,46.807,9.329,46.807z"/>
		<path d="M40.777,59.688c-2.481,0-4.5,2.021-4.5,4.506c0,2.49,2.019,4.516,4.5,4.516c2.488,0,4.513-2.025,4.513-4.516
			C45.29,61.709,43.266,59.688,40.777,59.688z M40.777,66.709c-1.378,0-2.5-1.129-2.5-2.516c0-1.382,1.121-2.506,2.5-2.506
			c1.386,0,2.513,1.124,2.513,2.506C43.29,65.604,42.187,66.709,40.777,66.709z"/>
		<path d="M52.163,29.633c-2.486,0-4.508,2.019-4.508,4.5c0,2.484,2.022,4.505,4.508,4.505c2.483,0,4.503-2.021,4.503-4.505
			C56.666,31.651,54.646,29.633,52.163,29.633z M52.163,36.638c-1.383,0-2.508-1.124-2.508-2.505c0-1.379,1.125-2.5,2.508-2.5
			c1.38,0,2.503,1.121,2.503,2.5C54.666,35.514,53.543,36.638,52.163,36.638z"/>
		<path d="M8.798,19.859c1.208,0,2.342-0.474,3.187-1.327c0.85-0.842,1.319-1.968,1.322-3.17c0.003-1.21-0.465-2.346-1.318-3.199
			c-0.851-0.853-1.981-1.322-3.185-1.322c-1.203,0-2.335,0.469-3.188,1.321c-1.757,1.76-1.757,4.621,0.001,6.381
			C6.469,19.392,7.599,19.859,8.798,19.859z M7.03,13.576c0.475-0.474,1.105-0.735,1.774-0.735c0.668,0,1.296,0.261,1.77,0.735
			c0.475,0.475,0.735,1.107,0.733,1.781c-0.001,0.667-0.261,1.29-0.736,1.761c-0.944,0.955-2.592,0.955-3.54,0.01
			C6.053,16.149,6.053,14.556,7.03,13.576z"/>
	</g>
</g>
<g id="nyt_x5F_exporter_x5F_info" display="none">
</g>
</svg>
