<?xml version="1.0" encoding="utf-8"?>
<!-- Generator: Adobe Illustrator 16.0.0, SVG Export Plug-In . SVG Version: 6.00 Build 0)  -->
<!DOCTYPE svg PUBLIC "-//W3C//DTD SVG 1.1//EN" "http://www.w3.org/Graphics/SVG/1.1/DTD/svg11.dtd">
<svg version="1.1" id="Layer_1" xmlns="http://www.w3.org/2000/svg" xmlns:xlink="http://www.w3.org/1999/xlink" x="0px" y="0px"
	 width="70px" height="70px" viewBox="0 0 70 70" enable-background="new 0 0 70 70" xml:space="preserve">
<g id="Layer_1_1_">
	<path d="M41.606,53.772v-7.105h20.303V2H7.091v44.667h23.349v7.105H4.045V69h60.909V53.772H41.606z M34.5,14.182h2.03v13.197H34.5
		V14.182z M26.011,25.292c0-3.762,2.074-7.093,5.413-8.692l1.031,2.151c-2.542,1.217-4.059,3.662-4.059,6.541
		c0,4.047,3.272,7.338,7.294,7.338c4.072,0,7.384-3.292,7.384-7.338c0-2.982-1.85-5.727-4.604-6.829l0.886-2.214
		c3.708,1.484,6.104,5.033,6.104,9.042c0,5.362-4.382,9.724-9.77,9.724C30.352,35.017,26.011,30.655,26.011,25.292z"/>
</g>
<g id="nyt_x5F_exporter_x5F_info" display="none">
</g>
</svg>
