<?xml version="1.0" encoding="utf-8"?>
<!-- Generator: Adobe Illustrator 16.0.0, SVG Export Plug-In . SVG Version: 6.00 Build 0)  -->
<!DOCTYPE svg PUBLIC "-//W3C//DTD SVG 1.1//EN" "http://www.w3.org/Graphics/SVG/1.1/DTD/svg11.dtd">
<svg version="1.1" xmlns="http://www.w3.org/2000/svg" xmlns:xlink="http://www.w3.org/1999/xlink" x="0px" y="0px" width="70px"
	 height="70px" viewBox="0 0 70 70" enable-background="new 0 0 70 70" xml:space="preserve">
<g id="Layer_1">
	<g>
		<path d="M34.96,69C16.227,69,0.987,53.762,0.987,35.031c0-18.733,15.24-33.974,33.973-33.974c18.737,0,33.981,15.24,33.981,33.974
			C68.941,53.762,53.697,69,34.96,69z M34.96,3.058c-17.63,0-31.973,14.344-31.973,31.974C2.987,52.659,17.33,67,34.96,67
			c17.634,0,31.981-14.341,31.981-31.969C66.941,17.401,52.594,3.058,34.96,3.058z"/>
	</g>
	<g>
		<path d="M31.23,20.268c0-2.333,1.331-3.498,3.992-3.498c2.666,0,3.997,1.165,3.997,3.498c0,1.109-0.333,1.974-0.997,2.594
			c-0.667,0.616-1.669,0.924-3,0.924C32.562,23.785,31.23,22.612,31.23,20.268z"/>
	</g>
	<g>
		<rect x="31.543" y="30.951" width="7.338" height="22.337"/>
	</g>
</g>
<g id="nyt_x5F_exporter_x5F_info" display="none">
</g>
</svg>
