<?xml version="1.0" encoding="utf-8"?>
<!-- Generator: Adobe Illustrator 16.0.0, SVG Export Plug-In . SVG Version: 6.00 Build 0)  -->
<!DOCTYPE svg PUBLIC "-//W3C//DTD SVG 1.1//EN" "http://www.w3.org/Graphics/SVG/1.1/DTD/svg11.dtd">
<svg version="1.1" xmlns="http://www.w3.org/2000/svg" xmlns:xlink="http://www.w3.org/1999/xlink" x="0px" y="0px" width="70px"
	 height="70px" viewBox="0 0 70 70" enable-background="new 0 0 70 70" xml:space="preserve">
<g id="Layer_1">
	<g>
		<path d="M37.48,62.023c-8.26,0-15.758-3.306-21.255-8.658l-1.226,1.304c5.213,6.747,13.337,11.294,22.455,11.294
			c13.025,0,24.027-9.273,27.396-21.001C59.875,55.059,49.478,62.023,37.48,62.023z"/>
		<path d="M10.987,46.6c-0.356-0.624-0.697-1.257-1.009-1.907c0.194,0.705,0.416,1.401,0.664,2.087L10.987,46.6z"/>
		<path d="M28.563,37.414l1.192,1.572L17.594,51.91c5.139,5.015,12.155,8.113,19.886,8.113c15.713,0,28.497-12.781,28.497-28.492
			S53.193,3.039,37.48,3.039c-15.711,0-28.493,12.781-28.493,28.492c0,5.145,1.377,9.971,3.773,14.142L28.563,37.414z M37.48,25.031
			c3.58,0,6.492,2.916,6.492,6.5c0,3.579-2.913,6.49-6.492,6.49c-3.581,0-6.494-2.911-6.494-6.49
			C30.986,27.947,33.899,25.031,37.48,25.031z"/>
		<polygon points="5.207,51.876 9.77,57.307 24.236,41.933 		"/>
	</g>
</g>
<g id="nyt_x5F_exporter_x5F_info" display="none">
</g>
</svg>
