<?xml version="1.0" encoding="utf-8"?>
<!-- Generator: Adobe Illustrator 16.0.0, SVG Export Plug-In . SVG Version: 6.00 Build 0)  -->
<!DOCTYPE svg PUBLIC "-//W3C//DTD SVG 1.1//EN" "http://www.w3.org/Graphics/SVG/1.1/DTD/svg11.dtd">
<svg version="1.1" id="Layer_1" xmlns="http://www.w3.org/2000/svg" xmlns:xlink="http://www.w3.org/1999/xlink" x="0px" y="0px"
	 width="70px" height="70px" viewBox="0 0 70 70" enable-background="new 0 0 70 70" xml:space="preserve">
<g>
	<rect x="20.764" y="22.006" width="26.81" height="26.807"/>
	<path d="M51.734,17.842h-35.13v35.127h35.13V17.842z M49.574,50.812h-30.81V20.006h30.81V50.812z"/>
	<path d="M0.394,1.635v67.541h67.547V1.635H0.394z M50.663,3.301c1.082,0,1.97,0.883,1.97,1.975c0,1.088-0.888,1.967-1.97,1.967
		c-1.089,0-1.968-0.879-1.968-1.967C48.695,4.184,49.574,3.301,50.663,3.301z M50.663,9.993c1.082,0,1.97,0.885,1.97,1.976
		c0,1.081-0.888,1.965-1.97,1.965c-1.089,0-1.968-0.884-1.968-1.965C48.695,10.878,49.574,9.993,50.663,9.993z M43.927,3.301
		c1.085,0,1.968,0.883,1.968,1.975c0,1.088-0.883,1.967-1.968,1.967c-1.081,0-1.965-0.879-1.965-1.967
		C41.962,4.184,42.844,3.301,43.927,3.301z M43.927,9.993c1.085,0,1.968,0.885,1.968,1.976c0,1.081-0.883,1.965-1.968,1.965
		c-1.081,0-1.965-0.884-1.965-1.965C41.962,10.878,42.844,9.993,43.927,9.993z M37.198,3.301c1.084,0,1.964,0.883,1.964,1.975
		c0,1.088-0.88,1.967-1.964,1.967c-1.089,0-1.967-0.879-1.967-1.967C35.231,4.184,36.109,3.301,37.198,3.301z M37.198,9.993
		c1.084,0,1.964,0.885,1.964,1.976c0,1.081-0.88,1.965-1.964,1.965c-1.089,0-1.967-0.884-1.967-1.965
		C35.231,10.878,36.109,9.993,37.198,9.993z M30.465,3.301c1.08,0,1.964,0.883,1.964,1.975c0,1.088-0.884,1.967-1.964,1.967
		c-1.087,0-1.969-0.879-1.969-1.967C28.496,4.184,29.378,3.301,30.465,3.301z M30.465,9.993c1.08,0,1.964,0.885,1.964,1.976
		c0,1.081-0.884,1.965-1.964,1.965c-1.087,0-1.969-0.884-1.969-1.965C28.496,10.878,29.378,9.993,30.465,9.993z M23.728,3.301
		c1.088,0,1.971,0.883,1.971,1.975c0,1.088-0.882,1.967-1.971,1.967c-1.082,0-1.967-0.879-1.967-1.967
		C21.761,4.184,22.646,3.301,23.728,3.301z M23.728,9.993c1.088,0,1.971,0.885,1.971,1.976c0,1.081-0.882,1.965-1.971,1.965
		c-1.082,0-1.967-0.884-1.967-1.965C21.761,10.878,22.646,9.993,23.728,9.993z M16.995,3.301c1.084,0,1.966,0.883,1.967,1.975
		c0,1.088-0.883,1.967-1.967,1.967c-1.086,0-1.967-0.879-1.967-1.967C15.028,4.184,15.909,3.301,16.995,3.301z M16.995,9.993
		c1.084,0,1.966,0.885,1.967,1.976c0,1.081-0.883,1.965-1.967,1.965c-1.086,0-1.967-0.884-1.967-1.965
		C15.028,10.878,15.909,9.993,16.995,9.993z M3.529,67.516c-1.086,0-1.969-0.883-1.969-1.971c0-1.086,0.883-1.969,1.969-1.969
		c1.08,0,1.97,0.883,1.97,1.969C5.499,66.633,4.609,67.516,3.529,67.516z M3.529,60.814c-1.086,0-1.969-0.875-1.969-1.967
		c0-1.088,0.883-1.97,1.969-1.97c1.08,0,1.97,0.882,1.97,1.97C5.499,59.939,4.609,60.814,3.529,60.814z M3.529,54.123
		c-1.086,0-1.969-0.884-1.969-1.973c0-1.092,0.883-1.969,1.969-1.969c1.08,0,1.97,0.877,1.97,1.969
		C5.499,53.239,4.609,54.123,3.529,54.123z M3.529,47.423c-1.086,0-1.969-0.884-1.969-1.968c0-1.092,0.883-1.975,1.969-1.975
		c1.08,0,1.97,0.883,1.97,1.975C5.499,46.539,4.609,47.423,3.529,47.423z M3.529,40.729c-1.086,0-1.969-0.891-1.969-1.977
		c0-1.087,0.883-1.97,1.969-1.97c1.08,0,1.97,0.883,1.97,1.97C5.499,39.838,4.609,40.729,3.529,40.729z M3.529,34.027
		c-1.086,0-1.969-0.884-1.969-1.966c0-1.088,0.883-1.971,1.969-1.971c1.08,0,1.97,0.883,1.97,1.971
		C5.499,33.143,4.609,34.027,3.529,34.027z M3.529,27.335c-1.086,0-1.969-0.885-1.969-1.972c0-1.086,0.883-1.974,1.969-1.974
		c1.08,0,1.97,0.887,1.97,1.974C5.499,26.45,4.609,27.335,3.529,27.335z M3.529,20.636c-1.086,0-1.969-0.884-1.969-1.976
		c0-1.081,0.883-1.969,1.969-1.969c1.08,0,1.97,0.888,1.97,1.969C5.499,19.752,4.609,20.636,3.529,20.636z M3.529,13.934
		c-1.086,0-1.969-0.884-1.969-1.965c0-1.091,0.883-1.976,1.969-1.976c1.08,0,1.97,0.885,1.97,1.976
		C5.499,13.05,4.609,13.934,3.529,13.934z M3.529,7.243c-1.086,0-1.969-0.879-1.969-1.967c0-1.092,0.883-1.975,1.969-1.975
		c1.08,0,1.97,0.883,1.97,1.975C5.499,6.364,4.609,7.243,3.529,7.243z M10.264,67.516c-1.089,0-1.974-0.883-1.974-1.971
		c0-1.086,0.885-1.969,1.974-1.969c1.08,0,1.965,0.883,1.965,1.969C12.229,66.633,11.344,67.516,10.264,67.516z M10.264,60.814
		c-1.089,0-1.974-0.875-1.974-1.967c0-1.088,0.885-1.97,1.974-1.97c1.08,0,1.965,0.882,1.965,1.97
		C12.229,59.939,11.344,60.814,10.264,60.814z M10.264,54.123c-1.089,0-1.974-0.884-1.974-1.973c0-1.092,0.885-1.969,1.974-1.969
		c1.08,0,1.965,0.877,1.965,1.969C12.229,53.239,11.344,54.123,10.264,54.123z M10.264,47.423c-1.089,0-1.974-0.884-1.974-1.968
		c0-1.092,0.885-1.975,1.974-1.975c1.08,0,1.965,0.883,1.965,1.975C12.229,46.539,11.344,47.423,10.264,47.423z M10.264,40.729
		c-1.089,0-1.974-0.891-1.974-1.977c0-1.087,0.885-1.97,1.974-1.97c1.08,0,1.965,0.883,1.965,1.97
		C12.229,39.838,11.344,40.729,10.264,40.729z M10.264,34.027c-1.089,0-1.974-0.884-1.974-1.966c0-1.088,0.885-1.971,1.974-1.971
		c1.08,0,1.965,0.883,1.965,1.971C12.229,33.143,11.344,34.027,10.264,34.027z M10.264,27.335c-1.089,0-1.974-0.885-1.974-1.972
		c0-1.086,0.885-1.974,1.974-1.974c1.08,0,1.965,0.887,1.965,1.974C12.229,26.45,11.344,27.335,10.264,27.335z M10.264,20.636
		c-1.089,0-1.974-0.884-1.974-1.976c0-1.081,0.885-1.969,1.974-1.969c1.08,0,1.965,0.888,1.965,1.969
		C12.229,19.752,11.344,20.636,10.264,20.636z M10.264,13.934c-1.089,0-1.974-0.884-1.974-1.965c0-1.091,0.885-1.976,1.974-1.976
		c1.08,0,1.965,0.885,1.965,1.976C12.229,13.05,11.344,13.934,10.264,13.934z M10.264,7.243c-1.089,0-1.974-0.879-1.974-1.967
		c0-1.092,0.885-1.975,1.974-1.975c1.08,0,1.965,0.883,1.965,1.975C12.229,6.364,11.344,7.243,10.264,7.243z M16.995,67.516
		c-1.088,0-1.97-0.882-1.97-1.97s0.882-1.97,1.97-1.97s1.97,0.882,1.97,1.97S18.083,67.516,16.995,67.516z M15.028,58.848
		c0-1.088,0.881-1.97,1.967-1.97c1.084,0,1.966,0.882,1.967,1.97c0,1.092-0.883,1.967-1.967,1.967
		C15.909,60.814,15.028,59.939,15.028,58.848z M23.728,67.516c-1.082,0-1.967-0.883-1.967-1.971c0-1.086,0.885-1.969,1.967-1.969
		c1.088,0,1.971,0.883,1.971,1.969C25.699,66.633,24.817,67.516,23.728,67.516z M23.728,60.814c-1.082,0-1.967-0.875-1.967-1.967
		c0-1.088,0.885-1.97,1.967-1.97c1.088,0,1.971,0.882,1.971,1.97C25.699,59.939,24.817,60.814,23.728,60.814z M30.465,67.516
		c-1.087,0-1.969-0.883-1.969-1.971c0-1.086,0.882-1.969,1.969-1.969c1.08,0,1.964,0.883,1.964,1.969
		C32.429,66.633,31.545,67.516,30.465,67.516z M30.465,60.814c-1.087,0-1.969-0.875-1.969-1.967c0-1.088,0.882-1.97,1.969-1.97
		c1.08,0,1.964,0.882,1.964,1.97C32.429,59.939,31.545,60.814,30.465,60.814z M37.198,67.516c-1.089,0-1.97-0.882-1.97-1.97
		s0.881-1.97,1.97-1.97c1.088,0,1.97,0.882,1.97,1.97S38.286,67.516,37.198,67.516z M35.231,58.848c0-1.088,0.878-1.97,1.967-1.97
		c1.084,0,1.964,0.882,1.964,1.97c0,1.092-0.88,1.967-1.964,1.967C36.109,60.814,35.231,59.939,35.231,58.848z M43.927,67.516
		c-1.081,0-1.965-0.883-1.965-1.971c0-1.086,0.882-1.969,1.965-1.969c1.085,0,1.968,0.883,1.968,1.969
		C45.895,66.633,45.012,67.516,43.927,67.516z M43.927,60.814c-1.081,0-1.965-0.875-1.965-1.967c0-1.088,0.882-1.97,1.965-1.97
		c1.085,0,1.968,0.882,1.968,1.97C45.895,59.939,45.012,60.814,43.927,60.814z M50.663,67.516c-1.089,0-1.968-0.883-1.968-1.971
		c0-1.086,0.879-1.969,1.968-1.969c1.082,0,1.97,0.883,1.97,1.969C52.633,66.633,51.745,67.516,50.663,67.516z M50.663,60.814
		c-1.089,0-1.968-0.875-1.968-1.967c0-1.088,0.879-1.97,1.968-1.97c1.082,0,1.97,0.882,1.97,1.97
		C52.633,59.939,51.745,60.814,50.663,60.814z M53.734,54.969H14.605V15.842h39.129V54.969z M57.4,67.516
		c-1.092,0-1.975-0.883-1.975-1.971c0-1.086,0.883-1.969,1.975-1.969c1.084,0,1.966,0.883,1.965,1.969
		C59.365,66.633,58.484,67.516,57.4,67.516z M57.4,60.814c-1.092,0-1.975-0.875-1.975-1.967c0-1.088,0.883-1.97,1.975-1.97
		c1.084,0,1.966,0.882,1.965,1.97C59.365,59.939,58.484,60.814,57.4,60.814z M57.4,54.123c-1.092,0-1.975-0.884-1.975-1.973
		c0-1.092,0.883-1.969,1.975-1.969c1.084,0,1.966,0.877,1.965,1.969C59.365,53.239,58.484,54.123,57.4,54.123z M57.4,47.423
		c-1.092,0-1.975-0.884-1.975-1.968c0-1.092,0.883-1.975,1.975-1.975c1.084,0,1.966,0.883,1.965,1.975
		C59.365,46.539,58.484,47.423,57.4,47.423z M57.4,40.729c-1.092,0-1.975-0.891-1.975-1.977c0-1.087,0.883-1.97,1.975-1.97
		c1.084,0,1.966,0.883,1.965,1.97C59.365,39.838,58.484,40.729,57.4,40.729z M57.4,34.027c-1.092,0-1.975-0.884-1.975-1.966
		c0-1.088,0.883-1.971,1.975-1.971c1.084,0,1.966,0.883,1.965,1.971C59.365,33.143,58.484,34.027,57.4,34.027z M57.4,27.335
		c-1.092,0-1.975-0.885-1.975-1.972c0-1.086,0.883-1.974,1.975-1.974c1.084,0,1.966,0.887,1.965,1.974
		C59.365,26.45,58.484,27.335,57.4,27.335z M57.4,20.636c-1.092,0-1.975-0.884-1.975-1.976c0-1.081,0.883-1.969,1.975-1.969
		c1.084,0,1.966,0.888,1.965,1.969C59.365,19.752,58.484,20.636,57.4,20.636z M57.4,13.934c-1.092,0-1.975-0.884-1.975-1.965
		c0-1.091,0.883-1.976,1.975-1.976c1.084,0,1.966,0.885,1.965,1.976C59.365,13.05,58.484,13.934,57.4,13.934z M57.4,7.243
		c-1.092,0-1.975-0.879-1.975-1.967c0-1.092,0.883-1.975,1.975-1.975c1.084,0,1.966,0.883,1.965,1.975
		C59.365,6.364,58.484,7.243,57.4,7.243z M64.131,67.516c-1.089,0-1.968-0.883-1.968-1.971c0-1.086,0.879-1.969,1.968-1.969
		c1.084,0,1.96,0.883,1.96,1.969C66.091,66.633,65.215,67.516,64.131,67.516z M64.131,60.814c-1.089,0-1.968-0.875-1.968-1.967
		c0-1.088,0.879-1.97,1.968-1.97c1.084,0,1.96,0.882,1.96,1.97C66.091,59.939,65.215,60.814,64.131,60.814z M64.131,54.123
		c-1.089,0-1.968-0.884-1.968-1.973c0-1.092,0.879-1.969,1.968-1.969c1.084,0,1.96,0.877,1.96,1.969
		C66.091,53.239,65.215,54.123,64.131,54.123z M64.131,47.423c-1.089,0-1.968-0.884-1.968-1.968c0-1.092,0.879-1.975,1.968-1.975
		c1.084,0,1.96,0.883,1.96,1.975C66.091,46.539,65.215,47.423,64.131,47.423z M64.131,40.729c-1.089,0-1.968-0.891-1.968-1.977
		c0-1.087,0.879-1.97,1.968-1.97c1.084,0,1.96,0.883,1.96,1.97C66.091,39.838,65.215,40.729,64.131,40.729z M64.131,34.027
		c-1.089,0-1.968-0.884-1.968-1.966c0-1.088,0.879-1.971,1.968-1.971c1.084,0,1.96,0.883,1.96,1.971
		C66.091,33.143,65.215,34.027,64.131,34.027z M64.131,27.335c-1.089,0-1.968-0.885-1.968-1.972c0-1.086,0.879-1.974,1.968-1.974
		c1.084,0,1.96,0.887,1.96,1.974C66.091,26.45,65.215,27.335,64.131,27.335z M64.131,20.636c-1.089,0-1.968-0.884-1.968-1.976
		c0-1.081,0.879-1.969,1.968-1.969c1.084,0,1.96,0.888,1.96,1.969C66.091,19.752,65.215,20.636,64.131,20.636z M64.131,13.934
		c-1.089,0-1.968-0.884-1.968-1.965c0-1.091,0.879-1.976,1.968-1.976c1.084,0,1.96,0.885,1.96,1.976
		C66.091,13.05,65.215,13.934,64.131,13.934z M64.131,7.243c-1.089,0-1.968-0.879-1.968-1.967c0-1.092,0.879-1.975,1.968-1.975
		c1.084,0,1.96,0.883,1.96,1.975C66.091,6.364,65.215,7.243,64.131,7.243z"/>
</g>
</svg>
