<?xml version="1.0" encoding="utf-8"?>
<!-- Generator: Adobe Illustrator 16.0.0, SVG Export Plug-In . SVG Version: 6.00 Build 0)  -->
<!DOCTYPE svg PUBLIC "-//W3C//DTD SVG 1.1//EN" "http://www.w3.org/Graphics/SVG/1.1/DTD/svg11.dtd">
<svg version="1.1" xmlns="http://www.w3.org/2000/svg" xmlns:xlink="http://www.w3.org/1999/xlink" x="0px" y="0px" width="70px"
	 height="70px" viewBox="0 0 70 70" enable-background="new 0 0 70 70" xml:space="preserve">
<g id="Layer_1">
	<g>
		<path d="M3.529,3.301c-1.086,0-1.969,0.883-1.969,1.975c0,1.088,0.883,1.967,1.969,1.967c1.08,0,1.97-0.879,1.97-1.967
			C5.499,4.184,4.609,3.301,3.529,3.301z"/>
		<path d="M3.529,9.993c-1.086,0-1.969,0.885-1.969,1.976c0,1.081,0.883,1.965,1.969,1.965c1.08,0,1.97-0.884,1.97-1.965
			C5.499,10.878,4.609,9.993,3.529,9.993z"/>
		<path d="M3.529,16.691c-1.086,0-1.969,0.888-1.969,1.969c0,1.092,0.883,1.976,1.969,1.976c1.08,0,1.97-0.884,1.97-1.976
			C5.499,17.579,4.609,16.691,3.529,16.691z"/>
		<path d="M3.529,23.389c-1.086,0-1.969,0.888-1.969,1.974c0,1.087,0.883,1.972,1.969,1.972c1.08,0,1.97-0.885,1.97-1.972
			C5.499,24.276,4.609,23.389,3.529,23.389z"/>
		<path d="M3.529,30.09c-1.086,0-1.969,0.883-1.969,1.971c0,1.082,0.883,1.966,1.969,1.966c1.08,0,1.97-0.884,1.97-1.966
			C5.499,30.973,4.609,30.09,3.529,30.09z"/>
		<path d="M3.529,36.782c-1.086,0-1.969,0.883-1.969,1.97c0,1.086,0.883,1.976,1.969,1.976c1.08,0,1.97-0.89,1.97-1.976
			C5.499,37.665,4.609,36.782,3.529,36.782z"/>
		<path d="M3.529,43.481c-1.086,0-1.969,0.882-1.969,1.974c0,1.084,0.883,1.968,1.969,1.968c1.08,0,1.97-0.884,1.97-1.968
			C5.499,44.363,4.609,43.481,3.529,43.481z"/>
		<path d="M3.529,50.182c-1.086,0-1.969,0.877-1.969,1.969c0,1.088,0.883,1.972,1.969,1.972c1.08,0,1.97-0.884,1.97-1.972
			C5.499,51.059,4.609,50.182,3.529,50.182z"/>
		<path d="M3.529,56.878c-1.086,0-1.969,0.882-1.969,1.97c0,1.092,0.883,1.967,1.969,1.967c1.08,0,1.97-0.875,1.97-1.967
			C5.499,57.76,4.609,56.878,3.529,56.878z"/>
		<path d="M3.529,63.576c-1.086,0-1.969,0.883-1.969,1.969c0,1.088,0.883,1.971,1.969,1.971c1.08,0,1.97-0.883,1.97-1.971
			C5.499,64.459,4.609,63.576,3.529,63.576z"/>
		<path d="M10.264,3.301c-1.089,0-1.974,0.883-1.974,1.975c0,1.088,0.885,1.967,1.974,1.967c1.08,0,1.965-0.879,1.965-1.967
			C12.229,4.184,11.344,3.301,10.264,3.301z"/>
		<path d="M10.264,9.993c-1.089,0-1.974,0.885-1.974,1.976c0,1.081,0.885,1.965,1.974,1.965c1.08,0,1.965-0.884,1.965-1.965
			C12.229,10.878,11.344,9.993,10.264,9.993z"/>
		<path d="M10.264,16.691c-1.089,0-1.974,0.888-1.974,1.969c0,1.092,0.885,1.976,1.974,1.976c1.08,0,1.965-0.884,1.965-1.976
			C12.229,17.579,11.344,16.691,10.264,16.691z"/>
		<path d="M10.264,23.389c-1.089,0-1.974,0.888-1.974,1.974c0,1.087,0.885,1.972,1.974,1.972c1.08,0,1.965-0.885,1.965-1.972
			C12.229,24.276,11.344,23.389,10.264,23.389z"/>
		<path d="M10.264,30.09c-1.089,0-1.974,0.883-1.974,1.971c0,1.082,0.885,1.966,1.974,1.966c1.08,0,1.965-0.884,1.965-1.966
			C12.229,30.973,11.344,30.09,10.264,30.09z"/>
		<path d="M10.264,36.782c-1.089,0-1.974,0.883-1.974,1.97c0,1.086,0.885,1.976,1.974,1.976c1.08,0,1.965-0.89,1.965-1.976
			C12.229,37.665,11.344,36.782,10.264,36.782z"/>
		<path d="M10.264,43.481c-1.089,0-1.974,0.882-1.974,1.974c0,1.084,0.885,1.968,1.974,1.968c1.08,0,1.965-0.884,1.965-1.968
			C12.229,44.363,11.344,43.481,10.264,43.481z"/>
		<path d="M10.264,50.182c-1.089,0-1.974,0.877-1.974,1.969c0,1.088,0.885,1.972,1.974,1.972c1.08,0,1.965-0.884,1.965-1.972
			C12.229,51.059,11.344,50.182,10.264,50.182z"/>
		<path d="M10.264,56.878c-1.089,0-1.974,0.882-1.974,1.97c0,1.092,0.885,1.967,1.974,1.967c1.08,0,1.965-0.875,1.965-1.967
			C12.229,57.76,11.344,56.878,10.264,56.878z"/>
		<path d="M10.264,63.576c-1.089,0-1.974,0.883-1.974,1.969c0,1.088,0.885,1.971,1.974,1.971c1.08,0,1.965-0.883,1.965-1.971
			C12.229,64.459,11.344,63.576,10.264,63.576z"/>
		<path d="M16.995,3.301c-1.086,0-1.967,0.883-1.967,1.975c0,1.088,0.881,1.967,1.967,1.967c1.084,0,1.967-0.879,1.967-1.967
			C18.961,4.184,18.079,3.301,16.995,3.301z"/>
		<path d="M16.995,9.993c-1.086,0-1.967,0.885-1.967,1.976c0,1.081,0.881,1.965,1.967,1.965c1.084,0,1.967-0.884,1.967-1.965
			C18.961,10.878,18.079,9.993,16.995,9.993z"/>
		<path d="M16.995,56.878c-1.086,0-1.967,0.882-1.967,1.97c0,1.092,0.881,1.967,1.967,1.967c1.084,0,1.967-0.875,1.967-1.967
			C18.961,57.76,18.079,56.878,16.995,56.878z"/>
		<circle cx="16.995" cy="65.546" r="1.97"/>
		<path d="M23.728,3.301c-1.082,0-1.967,0.883-1.967,1.975c0,1.088,0.885,1.967,1.967,1.967c1.089,0,1.971-0.879,1.971-1.967
			C25.699,4.184,24.816,3.301,23.728,3.301z"/>
		<path d="M23.728,9.993c-1.082,0-1.967,0.885-1.967,1.976c0,1.081,0.885,1.965,1.967,1.965c1.089,0,1.971-0.884,1.971-1.965
			C25.699,10.878,24.816,9.993,23.728,9.993z"/>
		<path d="M23.728,56.878c-1.082,0-1.967,0.882-1.967,1.97c0,1.092,0.885,1.967,1.967,1.967c1.089,0,1.971-0.875,1.971-1.967
			C25.699,57.76,24.816,56.878,23.728,56.878z"/>
		<path d="M23.728,63.576c-1.082,0-1.967,0.883-1.967,1.969c0,1.088,0.885,1.971,1.967,1.971c1.089,0,1.971-0.883,1.971-1.971
			C25.699,64.459,24.816,63.576,23.728,63.576z"/>
		<path d="M30.465,3.301c-1.087,0-1.969,0.883-1.969,1.975c0,1.088,0.882,1.967,1.969,1.967c1.08,0,1.964-0.879,1.964-1.967
			C32.429,4.184,31.545,3.301,30.465,3.301z"/>
		<path d="M30.465,9.993c-1.087,0-1.969,0.885-1.969,1.976c0,1.081,0.882,1.965,1.969,1.965c1.08,0,1.964-0.884,1.964-1.965
			C32.429,10.878,31.545,9.993,30.465,9.993z"/>
		<path d="M30.465,56.878c-1.087,0-1.969,0.882-1.969,1.97c0,1.092,0.882,1.967,1.969,1.967c1.08,0,1.964-0.875,1.964-1.967
			C32.429,57.76,31.545,56.878,30.465,56.878z"/>
		<path d="M30.465,63.576c-1.087,0-1.969,0.883-1.969,1.969c0,1.088,0.882,1.971,1.969,1.971c1.08,0,1.964-0.883,1.964-1.971
			C32.429,64.459,31.545,63.576,30.465,63.576z"/>
		<path d="M37.198,3.301c-1.089,0-1.967,0.883-1.967,1.975c0,1.088,0.878,1.967,1.967,1.967c1.084,0,1.964-0.879,1.964-1.967
			C39.162,4.184,38.282,3.301,37.198,3.301z"/>
		<path d="M37.198,9.993c-1.089,0-1.967,0.885-1.967,1.976c0,1.081,0.878,1.965,1.967,1.965c1.084,0,1.964-0.884,1.964-1.965
			C39.162,10.878,38.282,9.993,37.198,9.993z"/>
		<path d="M37.198,56.878c-1.089,0-1.967,0.882-1.967,1.97c0,1.092,0.878,1.967,1.967,1.967c1.084,0,1.964-0.875,1.964-1.967
			C39.162,57.76,38.282,56.878,37.198,56.878z"/>
		<circle cx="37.198" cy="65.546" r="1.97"/>
		<path d="M43.927,3.301c-1.083,0-1.965,0.883-1.965,1.975c0,1.088,0.883,1.967,1.965,1.967c1.085,0,1.968-0.879,1.968-1.967
			C45.895,4.184,45.012,3.301,43.927,3.301z"/>
		<path d="M43.927,9.993c-1.083,0-1.965,0.885-1.965,1.976c0,1.081,0.883,1.965,1.965,1.965c1.085,0,1.968-0.884,1.968-1.965
			C45.895,10.878,45.012,9.993,43.927,9.993z"/>
		<path d="M43.927,56.878c-1.083,0-1.965,0.882-1.965,1.97c0,1.092,0.883,1.967,1.965,1.967c1.085,0,1.968-0.875,1.968-1.967
			C45.895,57.76,45.012,56.878,43.927,56.878z"/>
		<path d="M43.927,63.576c-1.083,0-1.965,0.883-1.965,1.969c0,1.088,0.883,1.971,1.965,1.971c1.085,0,1.968-0.883,1.968-1.971
			C45.895,64.459,45.012,63.576,43.927,63.576z"/>
		<path d="M50.663,3.301c-1.089,0-1.968,0.883-1.968,1.975c0,1.088,0.879,1.967,1.968,1.967c1.082,0,1.97-0.879,1.97-1.967
			C52.633,4.184,51.745,3.301,50.663,3.301z"/>
		<path d="M50.663,9.993c-1.089,0-1.968,0.885-1.968,1.976c0,1.081,0.879,1.965,1.968,1.965c1.082,0,1.97-0.884,1.97-1.965
			C52.633,10.878,51.745,9.993,50.663,9.993z"/>
		<path d="M50.663,56.878c-1.089,0-1.968,0.882-1.968,1.97c0,1.092,0.879,1.967,1.968,1.967c1.082,0,1.97-0.875,1.97-1.967
			C52.633,57.76,51.745,56.878,50.663,56.878z"/>
		<path d="M50.663,63.576c-1.089,0-1.968,0.883-1.968,1.969c0,1.088,0.879,1.971,1.968,1.971c1.082,0,1.97-0.883,1.97-1.971
			C52.633,64.459,51.745,63.576,50.663,63.576z"/>
		<path d="M57.401,3.301c-1.092,0-1.975,0.883-1.975,1.975c0,1.088,0.883,1.967,1.975,1.967c1.083,0,1.964-0.879,1.964-1.967
			C59.366,4.184,58.485,3.301,57.401,3.301z"/>
		<path d="M57.401,9.993c-1.092,0-1.975,0.885-1.975,1.976c0,1.081,0.883,1.965,1.975,1.965c1.083,0,1.964-0.884,1.964-1.965
			C59.366,10.878,58.485,9.993,57.401,9.993z"/>
		<path d="M57.401,16.691c-1.092,0-1.975,0.888-1.975,1.969c0,1.092,0.883,1.976,1.975,1.976c1.083,0,1.964-0.884,1.964-1.976
			C59.366,17.579,58.485,16.691,57.401,16.691z"/>
		<path d="M57.401,23.389c-1.092,0-1.975,0.888-1.975,1.974c0,1.087,0.883,1.972,1.975,1.972c1.083,0,1.964-0.885,1.964-1.972
			C59.366,24.276,58.485,23.389,57.401,23.389z"/>
		<path d="M57.401,30.09c-1.092,0-1.975,0.883-1.975,1.971c0,1.082,0.883,1.966,1.975,1.966c1.083,0,1.964-0.884,1.964-1.966
			C59.366,30.973,58.485,30.09,57.401,30.09z"/>
		<path d="M57.401,36.782c-1.092,0-1.975,0.883-1.975,1.97c0,1.086,0.883,1.976,1.975,1.976c1.083,0,1.964-0.89,1.964-1.976
			C59.366,37.665,58.485,36.782,57.401,36.782z"/>
		<path d="M57.401,43.481c-1.092,0-1.975,0.882-1.975,1.974c0,1.084,0.883,1.968,1.975,1.968c1.083,0,1.964-0.884,1.964-1.968
			C59.366,44.363,58.485,43.481,57.401,43.481z"/>
		<path d="M57.401,50.182c-1.092,0-1.975,0.877-1.975,1.969c0,1.088,0.883,1.972,1.975,1.972c1.083,0,1.964-0.884,1.964-1.972
			C59.366,51.059,58.485,50.182,57.401,50.182z"/>
		<path d="M57.401,56.878c-1.092,0-1.975,0.882-1.975,1.97c0,1.092,0.883,1.967,1.975,1.967c1.083,0,1.964-0.875,1.964-1.967
			C59.366,57.76,58.485,56.878,57.401,56.878z"/>
		<path d="M57.401,63.576c-1.092,0-1.975,0.883-1.975,1.969c0,1.088,0.883,1.971,1.975,1.971c1.083,0,1.964-0.883,1.964-1.971
			C59.366,64.459,58.485,63.576,57.401,63.576z"/>
		<path d="M64.131,3.301c-1.089,0-1.968,0.883-1.968,1.975c0,1.088,0.879,1.967,1.968,1.967c1.084,0,1.96-0.879,1.96-1.967
			C66.091,4.184,65.215,3.301,64.131,3.301z"/>
		<path d="M64.131,9.993c-1.089,0-1.968,0.885-1.968,1.976c0,1.081,0.879,1.965,1.968,1.965c1.084,0,1.96-0.884,1.96-1.965
			C66.091,10.878,65.215,9.993,64.131,9.993z"/>
		<path d="M64.131,16.691c-1.089,0-1.968,0.888-1.968,1.969c0,1.092,0.879,1.976,1.968,1.976c1.084,0,1.96-0.884,1.96-1.976
			C66.091,17.579,65.215,16.691,64.131,16.691z"/>
		<path d="M64.131,23.389c-1.089,0-1.968,0.888-1.968,1.974c0,1.087,0.879,1.972,1.968,1.972c1.084,0,1.96-0.885,1.96-1.972
			C66.091,24.276,65.215,23.389,64.131,23.389z"/>
		<path d="M64.131,30.09c-1.089,0-1.968,0.883-1.968,1.971c0,1.082,0.879,1.966,1.968,1.966c1.084,0,1.96-0.884,1.96-1.966
			C66.091,30.973,65.215,30.09,64.131,30.09z"/>
		<path d="M64.131,36.782c-1.089,0-1.968,0.883-1.968,1.97c0,1.086,0.879,1.976,1.968,1.976c1.084,0,1.96-0.89,1.96-1.976
			C66.091,37.665,65.215,36.782,64.131,36.782z"/>
		<path d="M64.131,43.481c-1.089,0-1.968,0.882-1.968,1.974c0,1.084,0.879,1.968,1.968,1.968c1.084,0,1.96-0.884,1.96-1.968
			C66.091,44.363,65.215,43.481,64.131,43.481z"/>
		<path d="M64.131,50.182c-1.089,0-1.968,0.877-1.968,1.969c0,1.088,0.879,1.972,1.968,1.972c1.084,0,1.96-0.884,1.96-1.972
			C66.091,51.059,65.215,50.182,64.131,50.182z"/>
		<path d="M64.131,56.878c-1.089,0-1.968,0.882-1.968,1.97c0,1.092,0.879,1.967,1.968,1.967c1.084,0,1.96-0.875,1.96-1.967
			C66.091,57.76,65.215,56.878,64.131,56.878z"/>
		<path d="M64.131,63.576c-1.089,0-1.968,0.883-1.968,1.969c0,1.088,0.879,1.971,1.968,1.971c1.084,0,1.96-0.883,1.96-1.971
			C66.091,64.459,65.215,63.576,64.131,63.576z"/>
		<path d="M67.942,69.176H0.394V1.635h67.548V69.176z M2.394,67.176h63.548V3.635H2.394V67.176z M53.735,54.969h-39.13V15.842h39.13
			V54.969z M16.604,52.969h35.13V17.842h-35.13V52.969z"/>
		<path d="M49.574,50.812h-30.81V20.006h30.81V50.812z M20.764,48.812h26.81V22.006h-26.81V48.812z"/>
	</g>
</g>
<g id="nyt_x5F_exporter_x5F_info" display="none">
</g>
</svg>
