<?xml version="1.0" encoding="utf-8"?>
<!-- Generator: Adobe Illustrator 16.0.0, SVG Export Plug-In . SVG Version: 6.00 Build 0)  -->
<!DOCTYPE svg PUBLIC "-//W3C//DTD SVG 1.1//EN" "http://www.w3.org/Graphics/SVG/1.1/DTD/svg11.dtd">
<svg version="1.1" id="Layer_1" xmlns="http://www.w3.org/2000/svg" xmlns:xlink="http://www.w3.org/1999/xlink" x="0px" y="0px"
	 width="70px" height="70px" viewBox="0 0 70 70" enable-background="new 0 0 70 70" xml:space="preserve">
<g id="Layer_1_1_">
	<g>
		<polygon points="53.632,34.486 54.163,33.622 45.229,28.13 35.814,23.079 37.933,14.654 49.991,13.128 49.865,12.122 
			37.118,13.732 34.463,24.291 29.612,14.682 21.288,14.682 21.288,15.697 28.988,15.697 34.056,25.738 21.475,33.624 
			22.014,34.484 28.394,30.484 28.394,36 29.409,36 29.409,29.848 34.991,26.349 35.559,24.094 44.2,28.729 39.341,34.545 
			40.12,35.195 45.097,29.24 		"/>
		<path d="M42.606,54.272v-7.105h20.303V2.5H8.091v44.667h23.349v7.105H5.045V69.5h60.909V54.272H42.606z M64.939,68.484H6.061
			V55.288h26.394v-9.137H9.106V3.515h52.788v42.636H41.591v9.137h23.349V68.484z"/>
	</g>
</g>
<g id="nyt_x5F_exporter_x5F_info" display="none">
</g>
</svg>
