<?xml version="1.0" encoding="utf-8"?>
<!-- Generator: Adobe Illustrator 16.0.0, SVG Export Plug-In . SVG Version: 6.00 Build 0)  -->
<!DOCTYPE svg PUBLIC "-//W3C//DTD SVG 1.1//EN" "http://www.w3.org/Graphics/SVG/1.1/DTD/svg11.dtd">
<svg version="1.1" xmlns="http://www.w3.org/2000/svg" xmlns:xlink="http://www.w3.org/1999/xlink" x="0px" y="0px" width="70px"
	 height="70px" viewBox="0 0 70 70" enable-background="new 0 0 70 70" xml:space="preserve">
<g id="Layer_1">
	<path d="M63.285,44.289c-0.527,0-1.025,0.106-1.499,0.266c-3.785-5.125-12.359-10.651-20.716-12.47
		c0.007-0.103,0.03-0.198,0.03-0.304c0-0.321-0.033-0.634-0.095-0.938c8.951-2.013,15.377,1.635,18.861,4.564
		c-1.337,1.839-1.193,4.436,0.463,6.105c0.889,0.887,2.073,1.375,3.336,1.375c1.257,0,2.441-0.488,3.337-1.379
		c1.827-1.846,1.826-4.837-0.002-6.666c-0.853-0.857-2.069-1.349-3.338-1.349c-1.192,0-2.326,0.447-3.166,1.21
		c-3.694-3.057-10.494-6.893-19.792-4.805c-0.471-1.081-1.335-1.948-2.41-2.429c3.068-5.663,9.241-13.065,15.682-15.925
		c0.825,1.049,2.179,1.689,3.846,1.689c2.781,0,4.724-1.755,4.724-4.268c0-2.605-2.119-4.725-4.724-4.725
		c-2.601,0-4.717,2.119-4.717,4.725c0,0.623,0.121,1.199,0.343,1.714c-6.743,3.026-13.024,10.61-16.131,16.468
		c-0.166-0.034-0.342-0.037-0.514-0.053c0.653-5.121,2.445-13.032,7.276-17.528c0.836,0.935,2.118,1.505,3.682,1.505
		c2.777,0,4.717-1.755,4.717-4.267c0-2.606-2.116-4.727-4.717-4.727c-2.602,0-4.718,2.12-4.718,4.727
		c0,0.704,0.166,1.339,0.446,1.902c-5.254,4.747-7.091,13.103-7.728,18.407c-0.429,0.057-0.846,0.15-1.231,0.315
		c-2.559-4.201-7.176-7.581-13.666-9.888c-2.898-1.03-5.709-1.685-7.946-2.1c0.046-1.268-0.395-2.552-1.351-3.521
		c-0.856-0.85-2.075-1.337-3.343-1.337c-1.27,0-2.486,0.489-3.337,1.343c-1.837,1.841-1.834,4.832,0.003,6.666
		c0.886,0.896,2.069,1.391,3.334,1.391c1.264,0,2.454-0.493,3.353-1.391c0.606-0.613,0.991-1.36,1.191-2.146
		c6.034,1.139,16.388,4.124,20.888,11.482c-0.763,0.544-1.351,1.308-1.685,2.199c-9.177-2.36-18.835-0.345-23.797,3.712
		c-0.567-0.227-1.185-0.348-1.815-0.348c-1.266,0-2.483,0.487-3.341,1.339c-0.892,0.892-1.383,2.076-1.383,3.336
		c0.002,1.264,0.496,2.449,1.39,3.336c0.646,0.646,1.448,1.075,2.321,1.266c-0.154,0.119-0.315,0.232-0.452,0.371
		c-0.895,0.884-1.388,2.064-1.388,3.323c-0.004,1.264,0.486,2.451,1.382,3.343c0.888,0.891,2.071,1.381,3.332,1.381
		c1.262,0,2.448-0.492,3.339-1.386c0.893-0.888,1.384-2.071,1.384-3.331c0-1.103-0.394-2.131-1.081-2.963
		c4.282-4.049,12.163-10.439,19.847-11.219c0.088,0.79,0.368,1.492,0.821,2.067c-4.875,5.219-9.191,13.515-11.562,18.557
		c-0.307-0.099-0.624-0.17-0.952-0.205c-2.615-0.283-4.914,1.62-5.189,4.19c-0.276,2.586,1.603,4.915,4.189,5.192
		c0.169,0.018,0.335,0.026,0.501,0.026c2.418,0,4.434-1.813,4.688-4.218c0.134-1.251-0.229-2.48-1.021-3.462
		c-0.366-0.453-0.809-0.818-1.297-1.104c2.357-4.986,6.64-13.201,11.36-18.279c0.811,0.62,1.876,0.99,3.126,0.99
		c0.885,0,1.671-0.194,2.351-0.517c6.144,8.274,4.343,21.646,4.32,21.799l0.221,0.032c-2.473,0.141-4.446,2.176-4.446,4.682
		c0,2.606,2.114,4.728,4.713,4.728c2.606,0,4.728-2.121,4.728-4.728c0-2.421-1.851-4.397-4.213-4.657
		c0.088-0.661,0.589-4.837-0.005-9.903c-0.596-5.086-2.147-9.281-4.496-12.455c0.644-0.504,1.105-1.174,1.347-1.97
		c8.229,1.778,16.314,7.244,19.93,11.941c-1.35,0.829-2.26,2.304-2.26,3.997c0,2.604,2.118,4.723,4.721,4.723
		c2.601,0,4.717-2.118,4.717-4.723C68.002,46.4,65.886,44.289,63.285,44.289z M63.663,34.495c1.004,0,1.963,0.384,2.63,1.055
		c1.441,1.442,1.44,3.8,0.002,5.254c-1.412,1.401-3.865,1.393-5.256,0.004c-1.444-1.456-1.446-3.814-0.003-5.259
		C61.702,34.879,62.659,34.495,63.663,34.495z M57.822,5.244c2.053,0,3.724,1.671,3.724,3.725c0,1.954-1.496,3.268-3.724,3.268
		c-2.188,0-3.717-1.344-3.717-3.268C54.105,6.915,55.772,5.244,57.822,5.244z M47.762,3.081c2.05,0,3.717,1.672,3.717,3.727
		c0,1.954-1.494,3.267-3.717,3.267c-2.224,0-3.718-1.312-3.718-3.267C44.044,4.753,45.712,3.081,47.762,3.081z M10.869,17.891
		c-1.413,1.411-3.869,1.415-5.269,0c-1.449-1.447-1.451-3.804-0.004-5.255c0.665-0.667,1.623-1.049,2.629-1.049
		s1.968,0.382,2.635,1.043C12.295,14.085,12.298,16.445,10.869,17.891z M22.408,55.067c0.624,0.773,0.91,1.742,0.805,2.729
		c-0.216,2.024-2.029,3.513-4.089,3.303c-2.038-0.219-3.52-2.055-3.302-4.093c0.202-1.895,1.789-3.323,3.691-3.323
		c0.132,0,0.265,0.007,0.398,0.021C20.897,53.81,21.784,54.294,22.408,55.067z M47.262,62.043c0,2.056-1.672,3.728-3.728,3.728
		c-2.047,0-3.713-1.672-3.713-3.728c0-2.045,1.666-3.709,3.713-3.709C45.59,58.334,47.262,59.998,47.262,62.043z M2.637,38.169
		c0-0.992,0.387-1.925,1.089-2.627c0.67-0.665,1.631-1.047,2.635-1.047c1.003,0,1.962,0.381,2.629,1.044
		c0.705,0.704,1.094,1.638,1.094,2.629c0,0.993-0.388,1.928-1.092,2.631c-1.405,1.408-3.855,1.405-5.259-0.001
		C3.027,40.098,2.639,39.164,2.637,38.169z M10.854,49.096c-1.407,1.41-3.855,1.412-5.259,0.005
		c-0.705-0.702-1.092-1.637-1.088-2.633c0-0.991,0.388-1.919,1.095-2.618c0.66-0.67,1.616-1.054,2.621-1.054
		c1.006,0,1.966,0.386,2.635,1.061c0.7,0.695,1.086,1.624,1.086,2.616S11.558,48.396,10.854,49.096z M11.146,42.807
		c-0.56-0.438-1.215-0.756-1.931-0.904c0.165-0.126,0.333-0.247,0.482-0.396c0.893-0.892,1.385-2.077,1.385-3.338
		c0-1.259-0.492-2.444-1.388-3.337c-0.188-0.186-0.398-0.347-0.616-0.497c5.231-4.149,14.927-5.065,22.646-3.205
		c-0.008,0.056-0.011,0.112-0.017,0.169c-4.423,0.43-9.419,2.632-14.711,6.56C14.691,39.568,12.697,41.335,11.146,42.807z
		 M36.376,35.047c-2.188,0-3.716-1.343-3.716-3.266c0-2.055,1.667-3.727,3.716-3.727c2.054,0,3.725,1.672,3.725,3.727
		C40.101,33.734,38.604,35.047,36.376,35.047z M63.285,52.719c-2.052,0-3.721-1.67-3.721-3.723c0-2.044,1.669-3.707,3.721-3.707
		c2.05,0,3.717,1.663,3.717,3.707C67.002,51.049,65.335,52.719,63.285,52.719z"/>
</g>
<g id="nyt_x5F_exporter_x5F_info" display="none">
</g>
</svg>
