<?xml version="1.0" encoding="utf-8"?>
<!-- Generator: Adobe Illustrator 16.0.0, SVG Export Plug-In . SVG Version: 6.00 Build 0)  -->
<!DOCTYPE svg PUBLIC "-//W3C//DTD SVG 1.1//EN" "http://www.w3.org/Graphics/SVG/1.1/DTD/svg11.dtd">
<svg version="1.1" xmlns="http://www.w3.org/2000/svg" xmlns:xlink="http://www.w3.org/1999/xlink" x="0px" y="0px" width="280px"
	 height="280px" viewBox="0 0 280 280" enable-background="new 0 0 280 280" xml:space="preserve">
<g id="Layer_1">
	<g>
		<path d="M37.5,95.5v3.982V152.5h-9V95.486c3-2.082,4-5.197,4-8.601v-9.824c0-6.138-4.155-11.562-10.306-11.562h-1.812
			C14.237,65.5,8.5,70.924,8.5,77.062v9.824c0,3.397,2,6.513,4,8.599V168.5h25v7.994V212.5h8v-36h30v38h91v-38h13v38h91v-38.006
			v-7.844V95.5H37.5z M37.011,160.5H20.5V90.919l-2.168-1.075c-1.148-0.562-1.832-1.695-1.832-2.958v-9.824
			c0-1.813,2.062-3.562,3.883-3.562h1.812c1.825,0,3.306,1.748,3.306,3.562v9.824c0,1.267-1.18,2.399-2.324,2.955L20.5,90.914V160.5
			H37.011L37.011,160.5z M83.5,176.5h9v30h-9V176.5z M142.5,176.5v30h-9v-30H142.5z M125.5,206.5h-9v-30h9V206.5z M108.5,206.5h-9
			v-30h9V206.5z M158.5,206.5h-9v-30h9V206.5z M187.5,176.5h8v30h-8V176.5z M246.5,176.5v30h-9v-30H246.5z M229.5,206.5h-9v-30h9
			V206.5z M212.5,206.5h-9v-30h9V206.5z M262.5,206.5h-9v-30h9V206.5z M180.303,168.5h-13.439H76.473H45.5v-65h217v65H180.303z"/>
	</g>
</g>
<g id="nyt_x5F_exporter_x5F_info" display="none">
</g>
</svg>
