<?xml version="1.0" encoding="utf-8"?>
<!-- Generator: Adobe Illustrator 16.0.0, SVG Export Plug-In . SVG Version: 6.00 Build 0)  -->
<!DOCTYPE svg PUBLIC "-//W3C//DTD SVG 1.1//EN" "http://www.w3.org/Graphics/SVG/1.1/DTD/svg11.dtd">
<svg version="1.1" id="Layer_1" xmlns="http://www.w3.org/2000/svg" xmlns:xlink="http://www.w3.org/1999/xlink" x="0px" y="0px"
	 width="70px" height="70px" viewBox="0 0 70 70" enable-background="new 0 0 70 70" xml:space="preserve">
<g id="Layer_1_1_">
	<g>
		<path d="M46.396,23.838c0-3.949-2.453-7.583-6.105-9.044l-0.886,2.215c2.756,1.102,4.605,3.847,4.605,6.83
			c0,4.046-3.313,7.338-7.384,7.338c-4.022,0-7.295-3.292-7.295-7.338c0-2.239,0.927-4.208,2.531-5.548l0.365,3.081l2.369-0.281
			L33.8,14.39l-6.683-0.298l-0.107,2.383l3.141,0.141c-2.018,1.79-3.204,4.382-3.204,7.224c0,5.361,4.341,9.724,9.679,9.724
			C42.014,33.562,46.396,29.2,46.396,23.838z"/>
		<path d="M42.606,53.772v-7.105h20.303V2H8.091v44.667h23.349v7.105H5.045V69h60.909V53.772H42.606z M64.939,67.984H6.061V54.788
			h26.394v-9.137H9.106V3.015h52.788v42.636H41.591v9.137h23.349V67.984z"/>
	</g>
</g>
<g id="nyt_x5F_exporter_x5F_info" display="none">
</g>
</svg>
