<?xml version="1.0" encoding="utf-8"?>
<!-- Generator: Adobe Illustrator 16.0.0, SVG Export Plug-In . SVG Version: 6.00 Build 0)  -->
<!DOCTYPE svg PUBLIC "-//W3C//DTD SVG 1.1//EN" "http://www.w3.org/Graphics/SVG/1.1/DTD/svg11.dtd">
<svg version="1.1" id="Layer_1" xmlns="http://www.w3.org/2000/svg" xmlns:xlink="http://www.w3.org/1999/xlink" x="0px" y="0px"
	 width="70px" height="70px" viewBox="0 0 70 70" enable-background="new 0 0 70 70" xml:space="preserve">
<path d="M61.5,34.5V19.571c0-0.564,1-1.423,1-2.36v-2.769c0-1.67-1.657-2.942-3.326-2.942h-0.512c-1.671,0-3.162,1.272-3.162,2.942
	v2.769c0,0.935,1,1.792,1,2.359V34.5h-55v26h66v-26H61.5z M41.053,50.062c-1.574,0-2.855-1.285-2.855-2.863
	c0-1.577,1.281-2.859,2.855-2.859c1.575,0,2.856,1.282,2.856,2.859C43.909,48.777,42.628,50.062,41.053,50.062z M50.2,50.062
	c-1.575,0-2.857-1.285-2.857-2.863c0-1.577,1.282-2.859,2.857-2.859c1.577,0,2.86,1.282,2.86,2.859
	C53.061,48.777,51.777,50.062,50.2,50.062z M59.344,50.062c-1.574,0-2.855-1.285-2.855-2.863c0-1.577,1.281-2.859,2.855-2.859
	c1.575,0,2.856,1.282,2.856,2.859C62.2,48.777,60.919,50.062,59.344,50.062z"/>
<g id="nyt_x5F_exporter_x5F_info" display="none">
</g>
</svg>
