<?xml version="1.0" encoding="utf-8"?>
<!-- Generator: Adobe Illustrator 16.0.0, SVG Export Plug-In . SVG Version: 6.00 Build 0)  -->
<!DOCTYPE svg PUBLIC "-//W3C//DTD SVG 1.1//EN" "http://www.w3.org/Graphics/SVG/1.1/DTD/svg11.dtd">
<svg version="1.1" xmlns="http://www.w3.org/2000/svg" xmlns:xlink="http://www.w3.org/1999/xlink" x="0px" y="0px" width="70px"
	 height="70px" viewBox="0 0 70 70" enable-background="new 0 0 70 70" xml:space="preserve">
<g id="Layer_1">
	<g>
		<path d="M37.48,25.031c-3.581,0-6.494,2.916-6.494,6.5c0,3.579,2.913,6.49,6.494,6.49c3.58,0,6.492-2.911,6.492-6.49
			C43.972,27.947,41.06,25.031,37.48,25.031z M37.48,36.021c-2.478,0-4.494-2.015-4.494-4.49c0-2.481,2.016-4.5,4.494-4.5
			c2.477,0,4.492,2.019,4.492,4.5C41.972,34.007,39.957,36.021,37.48,36.021z"/>
		<path d="M67.977,31.531c0-16.813-13.681-30.492-30.497-30.492c-16.814,0-30.493,13.679-30.493,30.492
			c0,2.043,0.206,4.037,0.59,5.969h-0.59c0,3.523,0.676,6.967,1.89,10.201l-6.803,3.556l7.612,9.058l3.948-4.195
			c5.586,7.078,14.183,11.844,23.82,11.844c16.799,0,30.465-14.463,30.465-30.463h-0.533C67.771,35.568,67.977,33.574,67.977,31.531
			z M9.77,57.307l-4.563-5.431l4.43-2.314l1.77-0.925l2.257-1.18l0.15-0.078l10.423-5.446L9.77,57.307z M9.978,44.692
			c0.312,0.649,0.649,1.285,1.006,1.908l-0.331,0.174C10.4,46.09,10.172,45.396,9.978,44.692z M37.454,65.963
			c-9.118,0-17.24-4.549-22.452-11.298l1.23-1.307c5.496,5.354,12.988,8.665,21.249,8.665c11.998,0,22.395-6.965,27.37-17.062
			C61.48,56.689,50.479,65.963,37.454,65.963z M37.48,60.023c-7.73,0-14.743-3.104-19.88-8.119l12.155-12.918l-1.192-1.572
			l-15.808,8.261c-2.396-4.17-3.769-8.999-3.769-14.144c0-15.711,12.782-28.492,28.493-28.492c15.713,0,28.497,12.781,28.497,28.492
			S53.193,60.023,37.48,60.023z"/>
	</g>
</g>
<g id="nyt_x5F_exporter_x5F_info" display="none">
</g>
</svg>
