<?xml version="1.0" encoding="utf-8"?>
<!-- Generator: Adobe Illustrator 16.0.0, SVG Export Plug-In . SVG Version: 6.00 Build 0)  -->
<!DOCTYPE svg PUBLIC "-//W3C//DTD SVG 1.1//EN" "http://www.w3.org/Graphics/SVG/1.1/DTD/svg11.dtd">
<svg version="1.1" xmlns="http://www.w3.org/2000/svg" xmlns:xlink="http://www.w3.org/1999/xlink" x="0px" y="0px" width="70px"
	 height="70px" viewBox="0 0 70 70" enable-background="new 0 0 70 70" xml:space="preserve">
<g id="Layer_1">
	<g>
		<path d="M38.5,69.5h-14v-8.457l4.807-2.844L24.5,55.354v-4.537l4.807-2.844L24.5,45.127v-11.1
			c-7.788-2.864-7.782-8.771-7.776-15.016v-0.523c0-9.295,8.634-17.449,18.477-17.449c9.219,0,15.657,7.176,15.657,17.449
			c0,7.05-6.115,13.269-12.357,15.98V69.5z M26.5,67.5h10V33.121l0.632-0.25c5.827-2.307,11.726-7.987,11.726-14.383
			c0-9.097-5.616-15.449-13.657-15.449c-8.777,0-16.477,7.22-16.477,15.449v0.525c-0.006,6.407-0.011,11.037,7.086,13.351
			l0.69,0.226v11.396l6.732,3.986L26.5,51.957v2.256l6.732,3.986L26.5,62.184V67.5z M35.727,17.349
			c-3.053,0-5.537-2.487-5.537-5.544c0-3.056,2.484-5.541,5.537-5.541c3.054,0,5.538,2.485,5.538,5.541
			C41.265,14.861,38.78,17.349,35.727,17.349z M35.727,8.264c-1.95,0-3.537,1.589-3.537,3.541c0,1.954,1.587,3.544,3.537,3.544
			c1.951,0,3.538-1.59,3.538-3.544C39.265,9.853,37.678,8.264,35.727,8.264z"/>
	</g>
</g>
<g id="nyt_x5F_exporter_x5F_info" display="none">
</g>
</svg>
