<?xml version="1.0" encoding="utf-8"?>
<!-- Generator: Adobe Illustrator 16.0.0, SVG Export Plug-In . SVG Version: 6.00 Build 0)  -->
<!DOCTYPE svg PUBLIC "-//W3C//DTD SVG 1.1//EN" "http://www.w3.org/Graphics/SVG/1.1/DTD/svg11.dtd">
<svg version="1.1" xmlns="http://www.w3.org/2000/svg" xmlns:xlink="http://www.w3.org/1999/xlink" x="0px" y="0px" width="70px"
	 height="70px" viewBox="0 0 70 70" enable-background="new 0 0 70 70" xml:space="preserve">
<g id="Layer_1">
	<path d="M35.088,1.039c-9.842,0-18.588,8.154-18.588,17.449v0.523c0,6.244,0.212,12.151,8,15.016v11.1l4.807,2.846L24.5,50.816
		v4.537l4.807,2.846L24.5,61.043V69.5h14V34.469c6.242-2.712,12.302-8.931,12.302-15.98C50.802,8.215,44.307,1.039,35.088,1.039z
		 M35.727,17.349c-3.053,0-5.537-2.487-5.537-5.544c0-3.056,2.484-5.541,5.537-5.541c3.054,0,5.538,2.485,5.538,5.541
		C41.265,14.861,38.78,17.349,35.727,17.349z"/>
</g>
<g id="nyt_x5F_exporter_x5F_info" display="none">
</g>
</svg>
