<?xml version="1.0" encoding="utf-8"?>
<!-- Generator: Adobe Illustrator 16.0.0, SVG Export Plug-In . SVG Version: 6.00 Build 0)  -->
<!DOCTYPE svg PUBLIC "-//W3C//DTD SVG 1.1//EN" "http://www.w3.org/Graphics/SVG/1.1/DTD/svg11.dtd">
<svg version="1.1" xmlns="http://www.w3.org/2000/svg" xmlns:xlink="http://www.w3.org/1999/xlink" x="0px" y="0px" width="280px"
	 height="280px" viewBox="0 0 280 280" enable-background="new 0 0 280 280" xml:space="preserve">
<g id="Layer_1">
	<g>
		<path d="M3.5,83.5v113h115v-22h43v22h113v-113H3.5z M266.5,188.5h-11v-18h-8v18h-10v-18h-8v18h-10v-18h-8v18h-10v-18h-8v18h-10
			v-18h-8v18h-6v-22h-59v22h-7v-18h-7v18h-11v-18h-8v18h-10v-18h-7v18h-11v-18h-8v18h-10v-18h-8v18h-12v-97h255V188.5z"/>
	</g>
</g>
<g id="nyt_x5F_exporter_x5F_info" display="none">
</g>
</svg>
