<?xml version="1.0" encoding="utf-8"?>
<!-- Generator: Adobe Illustrator 16.0.0, SVG Export Plug-In . SVG Version: 6.00 Build 0)  -->
<!DOCTYPE svg PUBLIC "-//W3C//DTD SVG 1.1//EN" "http://www.w3.org/Graphics/SVG/1.1/DTD/svg11.dtd">
<svg version="1.1" id="Layer_1" xmlns="http://www.w3.org/2000/svg" xmlns:xlink="http://www.w3.org/1999/xlink" x="0px" y="0px"
	 width="70px" height="70px" viewBox="0 0 70 70" enable-background="new 0 0 70 70" xml:space="preserve">
<g id="Layer_1_1_">
	<g>
		<path d="M46.458,24.292c0-4.01-2.395-7.559-6.104-9.042l-0.886,2.214c2.754,1.103,4.604,3.847,4.604,6.829
			c0,4.047-3.313,7.338-7.385,7.338c-4.022,0-7.294-3.292-7.294-7.338c0-2.879,1.517-5.323,4.059-6.541l-1.031-2.151
			c-3.338,1.599-5.413,4.93-5.413,8.692c0,5.362,4.342,9.724,9.678,9.724C42.077,34.017,46.458,29.655,46.458,24.292z"/>
		<rect x="35.5" y="13.182" width="2.03" height="13.197"/>
		<path d="M42.606,52.772v-7.105h20.303V1H8.091v44.667h23.349v7.105H5.045V68h60.909V52.772H42.606z M64.939,66.984H6.061V53.788
			h26.394v-9.137H9.106V2.015h52.788v42.636H41.591v9.137h23.349V66.984z"/>
	</g>
</g>
<g id="nyt_x5F_exporter_x5F_info" display="none">
</g>
</svg>
