<?xml version="1.0" encoding="utf-8"?>
<!-- Generator: Adobe Illustrator 16.0.0, SVG Export Plug-In . SVG Version: 6.00 Build 0)  -->
<!DOCTYPE svg PUBLIC "-//W3C//DTD SVG 1.1//EN" "http://www.w3.org/Graphics/SVG/1.1/DTD/svg11.dtd">
<svg version="1.1" id="Layer_1" xmlns="http://www.w3.org/2000/svg" xmlns:xlink="http://www.w3.org/1999/xlink" x="0px" y="0px"
	 width="70px" height="70px" viewBox="0 0 70 70" enable-background="new 0 0 70 70" xml:space="preserve">
<g id="Layer_1_1_">
	<path d="M42.606,53.772v-7.105h20.303V2H8.091v44.667h23.349v7.105H5.045V69h60.909V53.772H42.606z M39.341,34.044l4.859-5.815
		l-8.642-4.634l-0.568,2.255l-5.581,3.499V35.5h-1.015v-5.516l-6.38,3.999l-0.539-0.861l12.582-7.887l-5.069-10.039h-7.7v-1.015
		h8.324l4.85,9.609l2.655-10.558l12.748-1.612l0.126,1.007l-12.059,1.525l-2.12,8.426l9.415,5.051l8.935,5.491l-0.53,0.865
		l-8.535-5.247l-4.977,5.956L39.341,34.044z"/>
</g>
<g id="nyt_x5F_exporter_x5F_info" display="none">
</g>
</svg>
