<?xml version="1.0" encoding="utf-8"?>
<!-- Generator: Adobe Illustrator 16.0.0, SVG Export Plug-In . SVG Version: 6.00 Build 0)  -->
<!DOCTYPE svg PUBLIC "-//W3C//DTD SVG 1.1//EN" "http://www.w3.org/Graphics/SVG/1.1/DTD/svg11.dtd">
<svg version="1.1" id="Layer_1" xmlns="http://www.w3.org/2000/svg" xmlns:xlink="http://www.w3.org/1999/xlink" x="0px" y="0px"
	 width="70px" height="70px" viewBox="0 0 70 70" enable-background="new 0 0 70 70" xml:space="preserve">
<g id="Layer_1_1_">
	<path d="M42.606,53.772v-7.105h20.303V2H8.091v44.667h23.349v7.105H5.045V69h60.909V53.772H42.606z M26.947,23.838
		c0-2.842,1.187-5.436,3.204-7.224l-3.141-0.141l0.107-2.383l6.683,0.298l0.796,6.701l-2.369,0.281l-0.365-3.081
		c-1.604,1.34-2.531,3.31-2.531,5.548c0,4.046,3.273,7.338,7.295,7.338c4.071,0,7.384-3.292,7.384-7.338
		c0-2.983-1.85-5.728-4.605-6.83l0.886-2.215c3.652,1.461,6.105,5.096,6.105,9.043c0,5.362-4.382,9.725-9.77,9.725
		C31.289,33.562,26.947,29.2,26.947,23.838z"/>
</g>
<g id="nyt_x5F_exporter_x5F_info" display="none">
</g>
</svg>
