<?xml version="1.0" encoding="utf-8"?>
<!-- Generator: Adobe Illustrator 16.0.0, SVG Export Plug-In . SVG Version: 6.00 Build 0)  -->
<!DOCTYPE svg PUBLIC "-//W3C//DTD SVG 1.1//EN" "http://www.w3.org/Graphics/SVG/1.1/DTD/svg11.dtd">
<svg version="1.1" xmlns="http://www.w3.org/2000/svg" xmlns:xlink="http://www.w3.org/1999/xlink" x="0px" y="0px" width="70px"
	 height="70px" viewBox="0 0 70 70" enable-background="new 0 0 70 70" xml:space="preserve">
<g id="Layer_1">
	<g>
		<path d="M44.375,69.803l-9.111-12.872l-9.106,12.872l-1.45-15.7L10.391,60.7l6.595-14.326L1.28,44.921l12.876-9.103L1.279,26.718
			l15.706-1.453L10.39,10.941l14.318,6.597l1.45-15.705l9.106,12.876l9.111-12.876l1.445,15.705l14.328-6.597l-6.6,14.323
			l15.7,1.453l-12.872,9.101l12.872,9.103l-15.7,1.453l6.6,14.326l-14.328-6.598L44.375,69.803z M26.44,51.103l1.212,13.126
			l7.612-10.761l7.616,10.761l1.208-13.126l11.978,5.516L50.55,44.644l13.125-1.215l-10.761-7.61l10.761-7.608l-13.125-1.215
			l5.517-11.972l-11.978,5.515L42.88,7.409l-7.616,10.763L27.652,7.409L26.44,20.538l-11.968-5.515l5.512,11.972L6.856,28.21
			l10.765,7.608l-10.765,7.61l13.128,1.215l-5.513,11.975L26.44,51.103z"/>
	</g>
</g>
<g id="nyt_x5F_exporter_x5F_info" display="none">
</g>
</svg>
