<?xml version="1.0" encoding="utf-8"?>
<!-- Generator: Adobe Illustrator 16.0.0, SVG Export Plug-In . SVG Version: 6.00 Build 0)  -->
<!DOCTYPE svg PUBLIC "-//W3C//DTD SVG 1.1//EN" "http://www.w3.org/Graphics/SVG/1.1/DTD/svg11.dtd">
<svg version="1.1" id="Layer_1" xmlns="http://www.w3.org/2000/svg" xmlns:xlink="http://www.w3.org/1999/xlink" x="0px" y="0px"
	 width="70px" height="70px" viewBox="0 0 70 70" enable-background="new 0 0 70 70" xml:space="preserve">
<path d="M34.96,1.057c-18.733,0-33.973,15.241-33.973,33.974C0.987,53.762,16.227,69,34.96,69c18.737,0,33.981-15.238,33.981-33.969
	C68.941,16.297,53.697,1.057,34.96,1.057z M38.881,53.288h-7.338V30.951h7.338V53.288z M38.223,22.862
	c-0.668,0.616-1.67,0.924-3,0.924c-2.66-0.001-3.992-1.174-3.992-3.518c0-2.333,1.331-3.498,3.992-3.498
	c2.667,0,3.997,1.165,3.997,3.498C39.219,21.377,38.887,22.242,38.223,22.862z"/>
</svg>
